SplineFontDB: 3.0
FontName: Rokkitt-Light
FullName: Rokkitt Light
FamilyName: Rokkitt
Weight: Light
Copyright: Copyright (c) 2011 by vernon adams. All rights reserved.
Version: 1.000
ItalicAngle: 0
UnderlinePosition: -103
UnderlineWidth: 102
Ascent: 1638
Descent: 410
sfntRevision: 0x00010042
LayerCount: 2
Layer: 0 0 "Back"  1
Layer: 1 0 "Fore"  0
NeedsXUIDChange: 1
XUID: [1021 118 1023546858 13128247]
FSType: 0
OS2Version: 0
OS2_WeightWidthSlopeOnly: 0
OS2_UseTypoMetrics: 1
CreationTime: 1318440780
ModificationTime: 1320571830
PfmFamily: 17
TTFWeight: 300
TTFWidth: 5
LineGap: 0
VLineGap: 0
Panose: 2 0 5 3 5 0 0 2 0 3
OS2TypoAscent: 1789
OS2TypoAOffset: 0
OS2TypoDescent: -439
OS2TypoDOffset: 0
OS2TypoLinegap: 0
OS2WinAscent: 1789
OS2WinAOffset: 0
OS2WinDescent: 439
OS2WinDOffset: 0
HheadAscent: 1789
HheadAOffset: 0
HheadDescent: -439
HheadDOffset: 0
OS2SubXSize: 1331
OS2SubYSize: 1228
OS2SubXOff: 0
OS2SubYOff: 153
OS2SupXSize: 1331
OS2SupYSize: 1228
OS2SupXOff: 0
OS2SupYOff: 716
OS2StrikeYSize: 102
OS2StrikeYPos: 509
OS2Vendor: 'newt'
OS2CodePages: 00000081.00000000
OS2UnicodeRanges: 8000006f.4000204b.00000000.00000000
Lookup: 4 0 1 "'liga' Standard Ligatures lookup 0"  {"'liga' Standard Ligatures lookup 0 subtable"  } ['liga' ('DFLT' <'dflt' > 'latn' <'dflt' > ) ]
Lookup: 258 0 0 "'kern' Horizontal Kerning lookup 0"  {"'kern' Horizontal Kerning lookup 0-1" [300,0,2] "'kern' Horizontal Kerning lookup 0-2" [307,30,0] } ['kern' ('DFLT' <'dflt' > 'latn' <'dflt' > ) ]
MarkAttachClasses: 1
DEI: 91125
KernClass2: 3 4 "'kern' Horizontal Kerning lookup 0-1" 
 1 A
 3 V W
 1 V
 1 W
 1 A
 0 {} 0 {} 0 {} 0 {} 0 {} -148 {} -102 {} 0 {} 0 {} 0 {} 0 {} -154 {}
LangName: 1033 "" "" "" "vernonadams: Rokkitt Light: 2011" "" "Version 1.000" "" "Rokkitt Light is a trademark of vernon adams." "vernon adams" "vernon adams" "Copyright (c) 2011 by vernon adams. All rights reserved." "" "newtypography.co.uk" "" "http://scripts.sil.org/OFL" "" "" "" "Rokkitt Light" 

StartChar: exclam
Encoding: 277 33 21
Width: 433
GlyphClass: 2
Flags: HW
LayerCount: 2
Fore
SplineSet
200 344 m 1
 171 809 l 1
 171 1171 l 1
 260 1171 l 1
 260 809 l 1
 231 344 l 1
 200 344 l 1
164 106 m 1
 269 106 l 1
 267 0 l 1
 164 0 l 1
 164 106 l 1
EndSplineSet
EndChar

StartChar: quotedbl
Encoding: 278 34 22
Width: 540
GlyphClass: 2
Flags: HW
LayerCount: 2
Fore
SplineSet
382 854 m 1
 350 854 l 1
 324 1234 l 1
 415 1234 l 1
 382 854 l 1
189 854 m 1
 157 854 l 1
 130 1234 l 1
 222 1234 l 1
 189 854 l 1
EndSplineSet
EndChar

StartChar: numbersign
Encoding: 279 35 23
Width: 1038
GlyphClass: 2
Flags: HW
LayerCount: 2
Fore
SplineSet
271 880 m 1
 300 1234 l 1
 379 1234 l 1
 350 880 l 1
 715 880 l 1
 744 1234 l 1
 823 1234 l 1
 794 880 l 1
 982 880 l 1
 977 821 l 1
 789 821 l 1
 759 457 l 1
 946 457 l 1
 941 398 l 1
 754 398 l 1
 721 0 l 1
 642 0 l 1
 675 398 l 1
 310 398 l 1
 277 0 l 1
 198 0 l 1
 231 398 l 1
 55 398 l 1
 60 457 l 1
 236 457 l 1
 266 821 l 1
 91 821 l 1
 96 880 l 1
 271 880 l 1
315 457 m 1
 680 457 l 1
 710 821 l 1
 345 821 l 1
 315 457 l 1
EndSplineSet
EndChar

StartChar: dollar
Encoding: 280 36 24
Width: 1154
GlyphClass: 2
Flags: HW
LayerCount: 2
Fore
SplineSet
630 -23 m 1
 630 -190 l 1
 570 -190 l 1
 570 -20 l 1
 452 -7.3330078125 339.333007812 36.6669921875 232 112 c 1
 232 0 l 1
 153 0 l 1
 153 416 l 1
 232 416 l 1
 232 196 l 1
 338.666992188 117.333007812 451.333007812 71 570 57 c 1
 570 594 l 1
 424.666992188 608.666992188 320.666992188 637 258 679 c 0
 182 730.333007812 144 810.166992188 144 918.5 c 128
 144 1026.83300781 183.5 1110 262.5 1168 c 128
 341.5 1226 438.333007812 1255 553 1255 c 2
 570 1255 l 1
 570 1421 l 1
 630 1421 l 1
 630 1250 l 1
 718.666992188 1240 808.666992188 1211 900 1163 c 1
 900 1234 l 1
 979 1234 l 1
 979 899 l 1
 900 899 l 1
 900 1080 l 1
 815.333007812 1134.66699219 725.333007812 1167.33300781 630 1178 c 1
 630 663 l 1
 876.37109375 634.524414062 1051.40039062 562.125976562 1050 317 c 0
 1049.33300781 235 1019 161.666992188 959 97 c 0
 885 17 776.333007812 -23 633 -23 c 2
 630 -23 l 1
880.5 508.5 m 128
 826.833007812 546.166992188 743.333007812 572.333007812 630 587 c 1
 630 53 l 1
 635.333007812 52.3330078125 640.666992188 52 646 52 c 2
 693 52 l 2
 761.114257812 52 843.73828125 95.73828125 882 134 c 0
 934.666992188 186 961 252 961 332 c 128
 961 412 934.166992188 470.833007812 880.5 508.5 c 128
566 1182 m 2
 367.908203125 1182 235 1095.62597656 235 909 c 128
 235 824.333007812 266 764 328 728 c 0
 374 701.333007812 454.666992188 682 570 670 c 1
 570 1182 l 1
 566 1182 l 2
EndSplineSet
EndChar

StartChar: percent
Encoding: 281 37 25
Width: 1609
GlyphClass: 2
Flags: HW
LayerCount: 2
Fore
SplineSet
1370 1310 m 1
 1411 1270 l 1
 310 -47 l 1
 265 0 l 1
 1370 1310 l 1
644 949 m 128
 644 1092.01953125 536.326171875 1192 398 1192 c 256
 259.692382812 1192 154 1091.95703125 154 949 c 128
 154 806.009765625 259.663085938 706 398 706 c 256
 536.295898438 706 644 806.013671875 644 949 c 128
623 723.5 m 128
 559.666992188 668.5 484.666992188 641 398 641 c 256
 312 641 237.5 668.333007812 174.5 723 c 128
 111.5 777.666992188 80 853.166992188 80 949.5 c 128
 80 1045.83300781 111.5 1120.83300781 174.5 1174.5 c 128
 237.5 1228.16699219 312 1255 398 1255 c 256
 485.333007812 1255 560.5 1228 623.5 1174 c 128
 686.5 1120 718 1045.16699219 718 949.5 c 128
 718 853.833007812 686.333007812 778.5 623 723.5 c 128
1485 283 m 128
 1485 426.01953125 1377.32617188 526 1239 526 c 256
 1100.69238281 526 995 425.95703125 995 283 c 128
 995 140.009765625 1100.66308594 40 1239 40 c 256
 1377.29589844 40 1485 140.013671875 1485 283 c 128
1464 57.5 m 128
 1400.66699219 2.5 1325.66699219 -25 1239 -25 c 256
 1153 -25 1078.5 2.3330078125 1015.5 57 c 128
 952.5 111.666992188 921 187.166992188 921 283.5 c 128
 921 379.833007812 952.5 454.833007812 1015.5 508.5 c 128
 1078.5 562.166992188 1153 589 1239 589 c 256
 1326.33300781 589 1401.5 562 1464.5 508 c 128
 1527.5 454 1559 379.166992188 1559 283.5 c 128
 1559 187.833007812 1527.33300781 112.5 1464 57.5 c 128
EndSplineSet
EndChar

StartChar: ampersand
Encoding: 282 38 26
Width: 1159
GlyphClass: 2
Flags: HW
LayerCount: 2
Fore
SplineSet
503 1255 m 128
 655.59765625 1255 785 1168.9140625 785 1024 c 0
 785 910 734.666992188 818.666992188 634 750 c 0
 596 724 548.333007812 699.333007812 491 676 c 1
 840 229 l 1
 844 235 850.666992188 244.333007812 860 257 c 0
 905.333007812 315.666992188 928 400.333007812 928 511 c 1
 1124 511 l 1
 1124 446 l 1
 984 446 l 1
 984 355.333007812 949.333007812 263.666992188 880 171 c 1
 964 68 l 1
 1124 68 l 1
 1124 0 l 1
 930 0 l 1
 828 113 l 1
 733.622070312 7.626953125 636.573242188 -20.2451171875 463 -23 c 1
 365.666992188 -23 278.833007812 10.8330078125 202.5 78.5 c 128
 126.166992188 146.166992188 88 227.5 88 322.5 c 128
 88 549.09375 197.494140625 638.54296875 389 702 c 1
 272 863 l 2
 238.666992188 907.666992188 222 960.333007812 222 1021 c 128
 222 1081.66699219 247.666992188 1135.83300781 299 1183.5 c 128
 350.333007812 1231.16699219 418.333007812 1255 503 1255 c 128
161 332 m 0
 161 180.344726562 312.059570312 48 465.5 48 c 128
 636.770507812 48 706.458984375 73.2724609375 789 170 c 1
 426 646 l 1
 282 603.333007812 197.333007812 531.333007812 172 430 c 0
 164 399.333007812 160.333007812 366.666992188 161 332 c 0
505 1183 m 128
 401.243164062 1183 295 1114.88867188 295 1016.5 c 128
 295 972.166992188 309.666992188 929.666992188 339 889 c 2
 456 728 l 1
 597.333007812 782.666992188 678.666992188 850.666992188 700 932 c 0
 706.666992188 959.333007812 710 994 710 1036 c 128
 710 1130.78125 606.256835938 1183 505 1183 c 128
EndSplineSet
EndChar

StartChar: quotesingle
Encoding: 283 39 27
Width: 347
GlyphClass: 2
Flags: HW
LayerCount: 2
Fore
SplineSet
189 854 m 1
 157 854 l 1
 130 1234 l 1
 222 1234 l 1
 189 854 l 1
EndSplineSet
EndChar

StartChar: parenleft
Encoding: 284 40 28
Width: 597
GlyphClass: 2
Flags: HW
LayerCount: 2
Fore
SplineSet
527 1200 m 1
 323.403320312 1127.34765625 210 915.240234375 210 616 c 256
 210 401.333007812 266.666992188 236.666992188 380 122 c 0
 420 82 469 51.6669921875 527 31 c 1
 527 -37 l 1
 398.333007812 -5 299.166992188 72.5 229.5 195.5 c 128
 159.833007812 318.5 125 458.666992188 125 616 c 256
 125 865.333007812 200.333007812 1053.33300781 351 1180 c 0
 401.666992188 1222.66699219 460.333007812 1252 527 1268 c 1
 527 1200 l 1
EndSplineSet
EndChar

StartChar: parenright
Encoding: 285 41 29
Width: 586
GlyphClass: 2
Flags: HW
LayerCount: 2
Fore
SplineSet
391 616 m 256
 391 900.2265625 288.467773438 1120.5703125 75 1200 c 1
 75 1268 l 1
 203 1236 302 1158.5 372 1035.5 c 128
 442 912.5 477 772.666992188 477 616 c 256
 477 366.666992188 401.666992188 178.666992188 251 52 c 0
 200.333007812 9.3330078125 141.666992188 -20.3330078125 75 -37 c 1
 75 31 l 1
 278.690429688 104.53125 391 317.005859375 391 616 c 256
EndSplineSet
EndChar

StartChar: asterisk
Encoding: 286 42 30
Width: 933
GlyphClass: 2
Flags: HW
LayerCount: 2
Fore
SplineSet
517 1229 m 1
 485 818 l 1
 859 992 l 1
 890 906 l 1
 494 785 l 1
 763 472 l 1
 687 415 l 1
 467 761 l 1
 246 415 l 1
 170 472 l 1
 439 785 l 1
 43 906 l 1
 74 992 l 1
 449 818 l 1
 416 1229 l 1
 517 1229 l 1
EndSplineSet
EndChar

StartChar: plus
Encoding: 287 43 31
Width: 795
GlyphClass: 2
Flags: HW
LayerCount: 2
Fore
SplineSet
432 598 m 1
 787 598 l 1
 787 534 l 1
 432 534 l 1
 432 138 l 1
 370 138 l 1
 370 534 l 1
 13 534 l 1
 13 598 l 1
 370 598 l 1
 370 982 l 1
 432 982 l 1
 432 598 l 1
EndSplineSet
EndChar

StartChar: comma
Encoding: 288 44 32
Width: 409
GlyphClass: 2
Flags: HW
LayerCount: 2
Fore
SplineSet
272 116 m 1
 272 -6 l 2
 272 -122 227 -180 137 -180 c 1
 137 -136 l 1
 201.625 -115.375 208 -90.0732421875 208 -4 c 1
 146 -4 l 1
 146 116 l 1
 272 116 l 1
EndSplineSet
EndChar

StartChar: hyphen
Encoding: 289 45 33
Width: 782
GlyphClass: 2
Flags: HW
LayerCount: 2
Fore
SplineSet
661 413 m 1
 131 413 l 1
 131 475 l 1
 661 475 l 1
 661 413 l 1
EndSplineSet
EndChar

StartChar: period
Encoding: 290 46 34
Width: 400
GlyphClass: 2
Flags: HW
LayerCount: 2
Fore
SplineSet
262 120 m 1
 262 0 l 1
 146 0 l 1
 146 120 l 1
 262 120 l 1
EndSplineSet
EndChar

StartChar: slash
Encoding: 291 47 35
Width: 540
GlyphClass: 2
Flags: HW
LayerCount: 2
Fore
SplineSet
414 1255 m 1
 485 1255 l 1
 117 -23 l 1
 42 -23 l 1
 414 1255 l 1
EndSplineSet
EndChar

StartChar: zero
Encoding: 292 48 36
Width: 1140
GlyphClass: 2
Flags: HW
LayerCount: 2
Fore
SplineSet
576 -23 m 256
 245.549804688 -23 128 268.82421875 128 616 c 0
 128 914.666992188 209.333007812 1111.33300781 372 1206 c 0
 428.666992188 1239.33300781 496.666992188 1255.66699219 576 1255 c 256
 727.333007812 1255 839.833007812 1196 913.5 1078 c 128
 987.166992188 960 1024 806 1024 616 c 0
 1024 316 942.666992188 119.333007812 780 26 c 0
 723.333007812 -6 655.333007812 -22.3330078125 576 -23 c 256
576 48 m 256
 867.6875 48 940 293.05078125 940 616 c 0
 940 993.333007812 818.666992188 1182 576 1182 c 128
 333.333007812 1182 212 993.333007812 212 616 c 0
 212 424.666992188 241.166992188 282.166992188 299.5 188.5 c 128
 357.833007812 94.8330078125 450 48 576 48 c 256
EndSplineSet
EndChar

StartChar: one
Encoding: 293 49 37
Width: 508
GlyphClass: 2
Flags: HW
LayerCount: 2
Fore
SplineSet
478 62 m 1
 478 0 l 1
 51 0 l 1
 51 62 l 1
 228 62 l 1
 228 1147 l 1
 72 1118 l 1
 55 1186 l 1
 309 1234 l 1
 309 62 l 1
 478 62 l 1
EndSplineSet
EndChar

StartChar: two
Encoding: 294 50 38
Width: 942
GlyphClass: 2
Flags: HW
LayerCount: 2
Fore
SplineSet
764 932 m 128
 764 1071.515625 652.752929688 1183 517 1183 c 0
 357 1183.66699219 254.333007812 1128 209 1016 c 0
 194.333007812 980 187 941 187 899 c 128
 187 857 192.333007812 816.666992188 203 778 c 1
 118 778 l 1
 110 815.333007812 106 858 106 906 c 0
 106 1117.82421875 269.981445312 1255 486 1255 c 0
 656 1255 768.333007812 1188.66699219 823 1056 c 0
 862.982421875 957.581054688 858.454101562 859.016601562 809.413085938 760.306640625 c 0
 760.373046875 661.596679688 684.896484375 559.2734375 582.984375 453.338867188 c 0
 481.072265625 347.404296875 396.096679688 264.197265625 328.05859375 203.71875 c 128
 260.01953125 143.239257812 214 101.333007812 190 78 c 1
 790 78 l 1
 790 0 l 1
 80 0 l 1
 80 80 l 1
 94 94.6669921875 114.666992188 114 142 138 c 0
 402.666992188 370 571.5 542 648.5 654 c 128
 725.5 766 764 858.666992188 764 932 c 128
EndSplineSet
EndChar

StartChar: three
Encoding: 295 51 39
Width: 1006
GlyphClass: 2
Flags: HW
LayerCount: 2
Fore
SplineSet
633 660 m 1
 775.9453125 625.965820312 873 518.525390625 873 336 c 0
 873 237.333007812 831 153.5 747 84.5 c 128
 663 15.5 559.166992188 -19 435.5 -19 c 128
 267.874023438 -19 111.846679688 77.251953125 46 216 c 1
 110 257 l 1
 179.333007812 119 296.666992188 50 462 50 c 0
 550 50 626.5 77.8330078125 691.5 133.5 c 128
 756.5 189.166992188 789 260.666992188 789 348 c 0
 789 517.333007812 679.666992188 606.333007812 461 615 c 0
 426.333007812 616.333007812 392.666992188 617 360 617 c 2
 321 617 l 1
 321 697 l 1
 415 697 l 2
 592.333007812 697 702.333007812 739.666992188 745 825 c 0
 758.333007812 852.333007812 765.333007812 887.333007812 766 930 c 0
 766 1010 734.166992188 1072.16699219 670.5 1116.5 c 128
 606.833007812 1160.83300781 534 1183 452 1183 c 0
 298.666992188 1183 195.333007812 1130.66699219 142 1026 c 1
 71 1057 l 1
 139.666992188 1189.66699219 267.333007812 1256 454 1256 c 0
 558.666992188 1256 651 1226.66699219 731 1168 c 128
 811 1109.33300781 851 1030.16699219 851 930.5 c 128
 851 797.049804688 759.49609375 697.6796875 633 660 c 1
EndSplineSet
EndChar

StartChar: four
Encoding: 296 52 40
Width: 938
GlyphClass: 2
Flags: HW
LayerCount: 2
Fore
SplineSet
63 442 m 1
 548 1234 l 1
 662 1234 l 1
 662 442 l 1
 919 442 l 1
 919 379 l 1
 662 379 l 1
 662 62 l 1
 823 62 l 1
 823 0 l 1
 420 0 l 1
 420 62 l 1
 581 62 l 1
 581 379 l 1
 74 379 l 1
 63 442 l 1
581 442 m 1
 581 1156 l 1
 156 442 l 1
 581 442 l 1
EndSplineSet
EndChar

StartChar: five
Encoding: 297 53 41
Width: 1010
GlyphClass: 2
Flags: HW
LayerCount: 2
Fore
SplineSet
98 217 m 1
 169.333007812 107.666992188 293.833007812 52.8330078125 471.5 52.5 c 0
 649.166992188 52.1669921875 765 112.666992188 819 234 c 0
 837.666992188 275.333007812 847 334.333007812 847 411 c 128
 847 487.666992188 820.166992188 559.5 766.5 626.5 c 128
 712.833007812 693.5 639.333007812 727 546 727 c 0
 396 727 278 704.666992188 192 660 c 1
 140 685 l 1
 140 1234 l 1
 788 1234 l 1
 787 1164 l 1
 219 1164 l 1
 210 748 l 1
 282.666992188 780 370.333007812 796 473 796 c 128
 575.666992188 796 651.666992188 785.333007812 701 764 c 0
 854.333007812 698 931 568.333007812 931 375 c 0
 931 250.333007812 887.5 153.666992188 800.5 85 c 128
 713.5 16.3330078125 604 -18 472 -18 c 0
 278 -18 137.666992188 42.3330078125 51 163 c 1
 98 217 l 1
EndSplineSet
EndChar

StartChar: six
Encoding: 298 54 42
Width: 939
GlyphClass: 2
Flags: HW
LayerCount: 2
Fore
SplineSet
475 49 m 256
 664.7578125 49 792 177.1953125 792 362.5 c 128
 792 452.166992188 761.166992188 523.833007812 699.5 577.5 c 128
 637.833007812 631.166992188 576 658 514 658 c 0
 312.561523438 658 164 549.802734375 164 356.5 c 128
 164 266.166992188 183.333007812 200.666992188 222 160 c 0
 291.333007812 86 375.666992188 49 475 49 c 256
480 726 m 0
 693.690429688 726 873 574.911132812 873 364 c 128
 873 260.666992188 837.5 170.333007812 766.5 93 c 128
 695.5 15.6669921875 603.833007812 -23 491.5 -23 c 128
 379.166992188 -23 283.666992188 11.6669921875 205 81 c 128
 126.333007812 150.333007812 87 233.666992188 87 331 c 128
 87 428.333007812 132 550.333007812 222 697 c 1
 579 1361 l 1
 646 1314 l 1
 295 678 l 1
 359.666992188 710 421.333007812 726 480 726 c 0
EndSplineSet
EndChar

StartChar: seven
Encoding: 299 55 43
Width: 862
GlyphClass: 2
Flags: HW
LayerCount: 2
Fore
SplineSet
353 52 m 1
 353 482 491 852.666992188 767 1164 c 1
 140 1164 l 1
 140 916 l 1
 63 916 l 1
 63 1234 l 1
 855 1234 l 1
 855 1158 l 1
 625.666992188 908.666992188 491.666992188 638.666992188 453 348 c 0
 441 254.666992188 435 156 435 52 c 1
 616 52 l 1
 616 -11 l 1
 189 -11 l 1
 189 52 l 1
 353 52 l 1
EndSplineSet
EndChar

StartChar: eight
Encoding: 300 56 44
Width: 1077
GlyphClass: 2
Flags: HW
LayerCount: 2
Fore
SplineSet
128 328.5 m 0
 128.868164062 480.923828125 237.541015625 612.108398438 397 644 c 1
 245 690.666992188 169 791.333007812 169 946 c 0
 169 1026.66699219 202.166992188 1098.33300781 268.5 1161 c 128
 334.833007812 1223.66699219 425.333007812 1255 540 1255 c 256
 751.920898438 1255 911 1128.23242188 911 925.5 c 0
 911 797.02734375 813.170898438 681.19140625 683 644 c 1
 840.6953125 612.797851562 951 499.55859375 951 304 c 0
 951 204 910.5 124.333007812 829.5 65 c 128
 748.5 5.6669921875 652 -24 540 -24 c 128
 428 -24 331.333007812 5.5 250 64.5 c 128
 168.666992188 123.5 128 211.5 128 328.5 c 0
540 596 m 256
 438 596 357.833007812 568.666992188 299.5 514 c 128
 241.166992188 459.333007812 212 402 212 342 c 0
 212 242.666992188 244.5 169 309.5 121 c 128
 374.5 73 451.166992188 49 539.5 49 c 128
 627.833007812 49 704.5 73 769.5 121 c 128
 834.5 169 867 236 867 322 c 0
 867 440 805.333007812 523.333007812 682 572 c 0
 641.333007812 588 594 596 540 596 c 256
540 1182 m 256
 403.333007812 1182 314 1130.66699219 272 1028 c 0
 260 998.666992188 254 968.333007812 254 937 c 256
 254 867.666992188 272 815 308 779 c 0
 373.333007812 712.333007812 450.666992188 679 540 679 c 256
 675.333007812 679.666992188 764.333007812 734.666992188 807 844 c 0
 819 874.666992188 825 905.666992188 825 937 c 256
 825 1004.33300781 807.333007812 1055 772 1089 c 0
 708.666992188 1151 631.333007812 1182 540 1182 c 256
EndSplineSet
EndChar

StartChar: nine
Encoding: 301 57 45
Width: 932
GlyphClass: 2
Flags: HW
LayerCount: 2
Fore
SplineSet
456 1183 m 128
 265.00390625 1183 139 1055.02148438 139 869.5 c 128
 139 780.5 169.833007812 709.166992188 231.5 655.5 c 128
 293.166992188 601.833007812 366.333007812 575 451 575 c 256
 536.333007812 575.666992188 601 595.333007812 645 634 c 0
 726.333007812 705.333007812 767 785.666992188 767 875 c 0
 767.666992188 964.333007812 748.666992188 1029.66699219 710 1071 c 0
 640.666992188 1145.66699219 556 1183 456 1183 c 128
450 506 m 0
 236.2734375 506 58 657.081054688 58 868 c 128
 58 971.333007812 93.5 1061.66699219 164.5 1139 c 128
 235.5 1216.33300781 327 1255 439 1255 c 128
 551 1255 646.5 1220.16699219 725.5 1150.5 c 128
 804.5 1080.83300781 844 999.166992188 844 905.5 c 128
 844 811.833007812 799 688.333007812 709 535 c 1
 352 -128 l 1
 284 -82 l 1
 636 554 l 1
 570.666992188 522 508.666992188 506 450 506 c 0
EndSplineSet
EndChar

StartChar: colon
Encoding: 302 58 46
Width: 416
GlyphClass: 2
Flags: HW
LayerCount: 2
Fore
SplineSet
267 815 m 1
 267 695 l 1
 150 695 l 1
 150 815 l 1
 267 815 l 1
267 314 m 1
 267 194 l 1
 150 194 l 1
 150 314 l 1
 267 314 l 1
EndSplineSet
EndChar

StartChar: semicolon
Encoding: 303 59 47
Width: 440
GlyphClass: 2
Flags: HW
LayerCount: 2
Fore
SplineSet
291 316 m 1
 291 193 l 2
 291 77 245.666992188 19 155 19 c 1
 155 64 l 1
 219.984375 84.7392578125 226 109.04296875 226 196 c 1
 165 196 l 1
 165 316 l 1
 291 316 l 1
286 815 m 1
 286 695 l 1
 169 695 l 1
 169 815 l 1
 286 815 l 1
EndSplineSet
EndChar

StartChar: less
Encoding: 304 60 48
Width: 852
GlyphClass: 2
Flags: HW
LayerCount: 2
Fore
SplineSet
-65 613 m 1
 782 1255 l 1
 782 1162 l 1
 49 613 l 1
 782 68 l 1
 782 -23 l 1
 -65 613 l 1
EndSplineSet
EndChar

StartChar: equal
Encoding: 305 61 49
Width: 789
GlyphClass: 2
Flags: HW
LayerCount: 2
Fore
SplineSet
650 634 m 1
 141 634 l 1
 141 696 l 1
 650 696 l 1
 650 634 l 1
650 356 m 1
 141 356 l 1
 141 419 l 1
 650 419 l 1
 650 356 l 1
EndSplineSet
EndChar

StartChar: greater
Encoding: 306 62 50
Width: 852
GlyphClass: 2
Flags: HW
LayerCount: 2
Fore
SplineSet
77 -23 m 1
 77 68 l 1
 810 613 l 1
 77 1162 l 1
 77 1255 l 1
 924 613 l 1
 77 -23 l 1
EndSplineSet
EndChar

StartChar: question
Encoding: 307 63 51
Width: 730
GlyphClass: 2
Flags: HW
LayerCount: 2
Fore
SplineSet
324 1151 m 0
 202 1151 120.666992188 1102 80 1004 c 1
 19 1040 l 1
 69.6669921875 1162 168 1223.16699219 314 1223.5 c 0
 504.228515625 1223.93457031 641 1115.68457031 641 906 c 128
 641 848.666992188 628.666992188 802 604 766 c 128
 579.333007812 730 540.833007812 689.333007812 488.5 644 c 128
 436.166992188 598.666992188 394.833007812 550.5 364.5 499.5 c 128
 334.166992188 448.5 316.666992188 378.333007812 312 289 c 1
 279 289 l 1
 279 459 326.333007812 587.333007812 421 674 c 0
 483 730.666992188 522.333007812 775.5 539 808.5 c 128
 555.666992188 841.5 564 884.666992188 564 938 c 128
 564 991.333007812 543.166992188 1040.16699219 501.5 1084.5 c 128
 459.833007812 1128.83300781 400.666992188 1151 324 1151 c 0
348 -23 m 1
 264 -23 l 1
 264 56 l 1
 348 56 l 1
 348 -23 l 1
EndSplineSet
EndChar

StartChar: at
Encoding: 308 64 52
Width: 1459
GlyphClass: 2
Flags: HW
LayerCount: 2
Fore
SplineSet
982 252 m 0
 925.915039062 252 887 306.474609375 887 377.5 c 128
 887 397.833007812 888 413.333007812 890 424 c 1
 813.333007812 309.333007812 726 252 628 252 c 0
 560 252 508.333007812 271.333007812 473 310 c 0
 408.333007812 381.333007812 376 468.5 376 571.5 c 128
 376 674.5 407.166992188 768.833007812 469.5 854.5 c 128
 531.833007812 940.166992188 618 983 728 983 c 128
 838 983 916.333007812 935.333007812 963 840 c 1
 987 962 l 1
 1074 962 l 1
 952 402 l 2
 950.666992188 395.333007812 950 386.333007812 950 375 c 128
 950 344.690429688 981.223632812 325 1016.5 325 c 128
 1038.83300781 325 1071.66699219 341.666992188 1115 375 c 128
 1197.12207031 438.170898438 1277 572.037109375 1277 716 c 0
 1277 852.666992188 1231.16699219 966.5 1139.5 1057.5 c 128
 1047.83300781 1148.5 919.5 1194 754.5 1194 c 128
 589.5 1194 451 1136.83300781 339 1022.5 c 128
 227 908.166992188 171 764.166992188 171 590.5 c 128
 171 242.25390625 406.418945312 26 755.5 26 c 128
 931.833007812 26 1071 61.6669921875 1173 133 c 1
 1210 83 l 1
 1098.66699219 -1 956 -43 782 -43 c 0
 483.333007812 -43 275.333007812 65 158 281 c 0
 108 373 83 461 83 545 c 0
 83 827.666992188 189.666992188 1035.33300781 403 1168 c 0
 507 1232.66699219 620.333007812 1265 743 1265 c 0
 955.666992188 1265 1111 1213 1209 1109 c 128
 1307 1005 1356 885.833007812 1356 751.5 c 128
 1356 617.166992188 1317.16699219 500.333007812 1239.5 401 c 128
 1161.83300781 301.666992188 1076 252 982 252 c 0
920 678 m 128
 920 811.2265625 855.926757812 913 736 913 c 0
 650.666992188 913 585 876.333007812 539 803 c 128
 493 729.666992188 470 653.5 470 574.5 c 128
 470 444.76171875 526.341796875 318 643 318 c 0
 724.333007812 318 790.833007812 358.333007812 842.5 439 c 128
 894.166992188 519.666992188 920 599.333007812 920 678 c 128
EndSplineSet
EndChar

StartChar: A
Encoding: 309 65 53
Width: 1285
GlyphClass: 2
Flags: HW
HStem: 0 62<-12 147 233 392 869 1028 1114 1272> 503 61<414 845> 1171 63<405 563 699 856>
DStem2: 147 62 233 62 0.351216 0.936294<30.2046 499.305 563.794 1184.46> 699 1171 630 1153 0.350476 -0.936572<0 619.669 684.86 1153.96>
LayerCount: 2
Fore
SplineSet
856 1234 m 1
 856 1171 l 1
 699 1171 l 1
 1114 62 l 1
 1272 62 l 1
 1272 0 l 1
 869 0 l 1
 869 62 l 1
 1028 62 l 1
 868 503 l 1
 393 503 l 1
 233 62 l 1
 392 62 l 1
 392 0 l 1
 -12 0 l 1
 -12 62 l 1
 147 62 l 1
 563 1171 l 1
 405 1171 l 1
 405 1234 l 1
 856 1234 l 1
414 564 m 1
 845 564 l 1
 630 1153 l 1
 414 564 l 1
EndSplineSet
EndChar

StartChar: B
Encoding: 310 66 54
Width: 1236
GlyphClass: 2
Flags: HW
HStem: 0 62<108 261 342 965.971> 613 65<342 929.22> 1171 63<95 261 342 903.06>
VStem: 261 81<62 613 678 1171> 1038 80<783.253 1058.7> 1110 80<191.483 477.686>
LayerCount: 2
Fore
SplineSet
947 654 m 1xf8
 1093.37011719 612.884765625 1186.76953125 508.68359375 1190 331 c 1xf4
 1190 244.333007812 1157.83300781 167.5 1093.5 100.5 c 0
 1029.16699219 33.5 940.333007812 0 827 0 c 2
 108 0 l 1
 108 62 l 1
 261 62 l 1
 261 1171 l 1
 95 1171 l 1
 95 1234 l 1
 755 1234 l 2
 869 1234 958 1203.83300781 1022 1143.5 c 0
 1086 1083.16699219 1118 1012.33300781 1118 931 c 0
 1118 806.333007812 1061 714 947 654 c 1xf8
827 62 m 2
 915.666992188 62 985 89.3330078125 1035 144 c 0
 1085 198.666992188 1110 263 1110 337 c 0
 1110 411 1083.5 475.5 1030.5 530.5 c 0
 977.5 585.5 904.666992188 613 812 613 c 2
 342 613 l 1
 342 62 l 1
 827 62 l 2
803 678 m 2
 953.596679688 678 1038 780.239257812 1038 954.5 c 0xf8
 1038 1003.5 1013.16699219 1051.83300781 963.5 1099.5 c 0
 913.833007812 1147.16699219 844.333007812 1171 755 1171 c 2
 342 1171 l 1
 342 678 l 1
 803 678 l 2
EndSplineSet
EndChar

StartChar: C
Encoding: 311 67 55
Width: 1333
GlyphClass: 2
Flags: HW
HStem: -23 71<485.258 912.783> 1182 73<486.188 899.374> 1214 20G<1177 1252>
VStem: 64 84<387.154 841.003> 1177 75<887 964.139 1027 1234>
LayerCount: 2
Fore
SplineSet
1261 283 m 1xd8
 1142.33300781 79 951 -23 687 -23 c 0
 524.333007812 -23 379.833007812 32.8330078125 253.5 144.5 c 0
 127.166992188 256.166992188 64 408.5 64 601.5 c 0
 64 794.5 123.666992188 951.666992188 243 1073 c 0
 362.333007812 1194.33300781 520.5 1255 717.5 1255 c 0xd8
 914.5 1255 1067.66699219 1179 1177 1027 c 1
 1177 1234 l 1
 1252 1234 l 1xb8
 1252 887 l 1
 1190 874 l 1
 1128.66699219 1012.66699219 1023.33300781 1106.66699219 874 1156 c 0
 822 1173.33300781 758.666992188 1182 684 1182 c 0
 528.666992188 1182 400.5 1126.83300781 299.5 1016.5 c 0
 198.5 906.166992188 148 773.166992188 148 617.5 c 0
 148 461.833007812 196 328 292 216 c 0
 388 104 525.333007812 48 704 48 c 0
 926.666992188 48 1089.33300781 143.333007812 1192 334 c 1
 1261 283 l 1xd8
EndSplineSet
EndChar

StartChar: D
Encoding: 312 68 56
Width: 1413
GlyphClass: 2
Flags: HW
LayerCount: 2
Fore
SplineSet
800 1234 m 2
 1028.66699219 1234 1190.33300781 1126.66699219 1285 912 c 0
 1325 820.666992188 1345 729 1345 637 c 0
 1345 455 1297 303.333007812 1201 182 c 128
 1105 60.6669921875 971.333007812 0 800 0 c 2
 107 0 l 1
 107 62 l 1
 273 62 l 1
 273 1171 l 1
 107 1171 l 1
 107 1234 l 1
 800 1234 l 2
355 1171 m 1
 355 62 l 1
 799 62 l 2
 945.666992188 62 1059.33300781 116.666992188 1140 226 c 128
 1220.66699219 335.333007812 1261 465.333007812 1261 616 c 0
 1261 828 1192.66699219 985.333007812 1056 1088 c 0
 983.333007812 1142.66699219 897.666992188 1170.33300781 799 1171 c 2
 355 1171 l 1
EndSplineSet
EndChar

StartChar: E
Encoding: 313 69 57
Width: 1255
GlyphClass: 2
Flags: HW
LayerCount: 2
Fore
SplineSet
362 1164 m 1
 362 666 l 1
 795 666 l 1
 795 824 l 1
 862 824 l 1
 862 424 l 1
 795 424 l 1
 795 596 l 1
 362 596 l 1
 362 70 l 1
 1047 70 l 1
 1047 376 l 1
 1124 376 l 1
 1124 0 l 1
 105 0 l 1
 105 70 l 1
 280 70 l 1
 280 1164 l 1
 105 1164 l 1
 105 1234 l 1
 1102 1234 l 1
 1102 858 l 1
 1026 858 l 1
 1026 1164 l 1
 362 1164 l 1
EndSplineSet
EndChar

StartChar: F
Encoding: 314 70 58
Width: 1162
GlyphClass: 2
Flags: HW
LayerCount: 2
Fore
SplineSet
362 1164 m 1
 362 643 l 1
 855 643 l 1
 855 817 l 1
 922 817 l 1
 922 404 l 1
 855 404 l 1
 855 577 l 1
 362 577 l 1
 362 70 l 1
 564 70 l 1
 564 0 l 1
 105 0 l 1
 105 70 l 1
 280 70 l 1
 280 1164 l 1
 105 1164 l 1
 105 1234 l 1
 1110 1234 l 1
 1110 858 l 1
 1033 858 l 1
 1033 1164 l 1
 362 1164 l 1
EndSplineSet
EndChar

StartChar: G
Encoding: 315 71 59
Width: 1344
GlyphClass: 2
Flags: HW
LayerCount: 2
Fore
SplineSet
1168 898 m 1
 1080 1087.33300781 918.666992188 1182 684 1182 c 0
 530 1182 402.5 1126.83300781 301.5 1016.5 c 128
 200.5 906.166992188 150 772.833007812 150 616.5 c 128
 150 460.166992188 198 326.333007812 294 215 c 128
 390 103.666992188 527.666992188 48 707 48 c 0
 992.754882812 48 1191.05859375 226.245117188 1198 523 c 1
 933 523 l 1
 933 589 l 1
 1282 589 l 1
 1282 304.333007812 1175.66699219 117.333007812 963 28 c 0
 883.666992188 -5.3330078125 806.333007812 -22.3330078125 731 -23 c 0
 469.666992188 -23 278.333007812 74 157 268 c 0
 96.3330078125 365.333007812 66 493.5 66 652.5 c 128
 66 811.5 125.666992188 951.666992188 245 1073 c 128
 364.333007812 1194.33300781 519.5 1255 710.5 1255 c 128
 901.5 1255 1049.66699219 1187 1155 1051 c 1
 1155 1234 l 1
 1230 1234 l 1
 1230 898 l 1
 1168 898 l 1
EndSplineSet
EndChar

StartChar: H
Encoding: 316 72 60
Width: 1485
GlyphClass: 2
Flags: HW
HStem: 0 62<112 264 345 500 999 1147 1228 1368> 598 63<345 1147> 1171 63<112 264 345 500 999 1147 1228 1368>
VStem: 264 81<62 598 661 1171> 1147 81<62 598 661 1171>
LayerCount: 2
Fore
SplineSet
1368 1234 m 1
 1368 1171 l 1
 1228 1171 l 1
 1228 62 l 1
 1368 62 l 1
 1368 0 l 1
 999 0 l 1
 999 62 l 1
 1147 62 l 1
 1147 598 l 1
 345 598 l 1
 345 62 l 1
 500 62 l 1
 500 0 l 1
 112 0 l 1
 112 62 l 1
 264 62 l 1
 264 1171 l 1
 112 1171 l 1
 112 1234 l 1
 500 1234 l 1
 500 1171 l 1
 345 1171 l 1
 345 661 l 1
 1147 661 l 1
 1147 1171 l 1
 999 1171 l 1
 999 1234 l 1
 1368 1234 l 1
EndSplineSet
EndChar

StartChar: I
Encoding: 317 73 61
Width: 624
GlyphClass: 2
Flags: W
HStem: 0 62<109 270 352 512> 1171 63<109 270 352 512>
VStem: 270 82<62 1171>
LayerCount: 2
Fore
SplineSet
512 1234 m 1
 512 1171 l 1
 352 1171 l 1
 352 62 l 1
 512 62 l 1
 512 0 l 1
 109 0 l 1
 109 62 l 1
 270 62 l 1
 270 1171 l 1
 109 1171 l 1
 109 1234 l 1
 512 1234 l 1
EndSplineSet
EndChar

StartChar: J
Encoding: 318 74 62
Width: 469
GlyphClass: 2
Flags: HW
LayerCount: 2
Fore
SplineSet
101 -41 m 2
 166.189453125 -41 175 -0.771484375 175 59 c 2
 175 1174 l 1
 36 1174 l 1
 36 1234 l 1
 396 1234 l 1
 396 1174 l 1
 257 1174 l 1
 257 60 l 2
 257.666992188 -40.6669921875 220 -93.6669921875 144 -99 c 0
 124 -100.333007812 105.333007812 -101 88 -101 c 2
 17 -101 l 1
 17 -41 l 1
 101 -41 l 2
EndSplineSet
EndChar

StartChar: K
Encoding: 319 75 63
Width: 1311
GlyphClass: 2
Flags: HW
LayerCount: 2
Fore
SplineSet
513 1234 m 1
 513 1174 l 1
 352 1174 l 1
 352 642 l 1
 948 1174 l 1
 795 1174 l 1
 795 1234 l 1
 1227 1234 l 1
 1227 1174 l 1
 1054 1174 l 1
 454 634 l 1
 1114 60 l 1
 1284 60 l 1
 1284 0 l 1
 829 0 l 1
 829 60 l 1
 996 60 l 1
 352 625 l 1
 352 60 l 1
 513 60 l 1
 513 0 l 1
 109 0 l 1
 109 60 l 1
 270 60 l 1
 270 1174 l 1
 109 1174 l 1
 109 1234 l 1
 513 1234 l 1
EndSplineSet
EndChar

StartChar: L
Encoding: 320 76 64
Width: 1128
GlyphClass: 2
Flags: HW
LayerCount: 2
Fore
SplineSet
475 1234 m 1
 475 1174 l 1
 336 1174 l 1
 336 70 l 1
 964 70 l 1
 964 412 l 1
 1040 412 l 1
 1040 0 l 1
 115 0 l 1
 115 70 l 1
 254 70 l 1
 254 1174 l 1
 115 1174 l 1
 115 1234 l 1
 475 1234 l 1
EndSplineSet
EndChar

StartChar: M
Encoding: 321 77 65
Width: 1675
GlyphClass: 2
Flags: HW
HStem: 0 62<109 270 349 510 1162 1323 1402 1563> 1171 63<109 270 1402 1563>
VStem: 270 79<62 1088> 1323 79<62 1088>
DStem2: 365 1234 349 1088 0.441519 -0.897252<123.934 1105.14> 846 239 846 78 0.427047 0.904229<0 971.392>
LayerCount: 2
Fore
SplineSet
349 1088 m 1
 349 62 l 1
 510 62 l 1
 510 0 l 1
 109 0 l 1
 109 62 l 1
 270 62 l 1
 270 1171 l 1
 109 1171 l 1
 109 1234 l 1
 365 1234 l 1
 846 239 l 1
 1307 1234 l 1
 1563 1234 l 1
 1563 1171 l 1
 1402 1171 l 1
 1402 62 l 1
 1563 62 l 1
 1563 0 l 1
 1162 0 l 1
 1162 62 l 1
 1323 62 l 1
 1323 1088 l 1
 846 78 l 1
 349 1088 l 1
EndSplineSet
EndChar

StartChar: N
Encoding: 322 78 66
Width: 1495
GlyphClass: 2
Flags: HW
HStem: 0 62<109 270 349 510> 1171 63<109 270 1032 1193 1272 1433>
VStem: 270 79<62 1114> 1193 79<125 1171>
DStem2: 349 1234 349 1114 0.603885 -0.797071<95.6486 1393.63>
LayerCount: 2
Fore
SplineSet
349 1234 m 1
 1193 125 l 1
 1193 1171 l 1
 1032 1171 l 1
 1032 1234 l 1
 1433 1234 l 1
 1433 1171 l 1
 1272 1171 l 1
 1272 0 l 1
 1193 0 l 1
 349 1114 l 1
 349 62 l 1
 510 62 l 1
 510 0 l 1
 109 0 l 1
 109 62 l 1
 270 62 l 1
 270 1171 l 1
 109 1171 l 1
 109 1234 l 1
 349 1234 l 1
EndSplineSet
EndChar

StartChar: O
Encoding: 323 79 67
Width: 1408
GlyphClass: 2
Flags: W
HStem: -23 71<487.092 918.337> 1182 73<495.714 910.707>
VStem: 63 84<390.994 840.794> 1259 84<390.393 833.009>
LayerCount: 2
Fore
SplineSet
701.5 1182 m 0
 459.768554688 1182 291.217773438 1055.24902344 210.5 890 c 0
 168.166992188 803.333007812 147 717.666992188 147 633 c 0
 147 465 195.5 325.5 292.5 214.5 c 0
 389.5 103.5 526.333007812 48 703 48 c 0
 933.666992188 48 1098.33300781 146 1197 342 c 0
 1238.33300781 426 1259 504 1259 576 c 0
 1259 818 1174 993 1004 1101 c 0
 919.333007812 1155 818.5 1182 701.5 1182 c 0
703 -23 m 256
 501 -23 343.833007812 39.8330078125 231.5 165.5 c 0
 119.166992188 291.166992188 63 440.166992188 63 612.5 c 0
 63 784.833007812 119.166992188 935 231.5 1063 c 0
 343.833007812 1191 501 1255 703 1255 c 256
 971 1255 1160.33300781 1144 1271 922 c 0
 1319 826.666992188 1343 731.333007812 1343 636 c 0
 1343 448 1286.83300781 291.166992188 1174.5 165.5 c 0
 1062.16699219 39.8330078125 905 -23 703 -23 c 256
EndSplineSet
EndChar

StartChar: P
Encoding: 324 80 68
Width: 1198
GlyphClass: 2
Flags: HW
LayerCount: 2
Fore
SplineSet
108 62 m 1
 261 62 l 1
 261 1171 l 1
 95 1171 l 1
 95 1234 l 1
 776 1234 l 2
 890 1234 978.833007812 1199 1042.5 1129 c 128
 1106.16699219 1059 1138 976.166992188 1138 880.5 c 128
 1138 784.833007812 1106.16699219 700.333007812 1042.5 627 c 128
 978.833007812 553.666992188 890 517 776 517 c 2
 342 517 l 1
 342 62 l 1
 512 62 l 1
 512 0 l 1
 108 0 l 1
 108 62 l 1
342 582 m 1
 776 582 l 2
 864.666992188 582 934 611.666992188 984 671 c 128
 1034 730.333007812 1059 800 1059 880 c 128
 1059 960 1034 1028.5 984 1085.5 c 128
 934 1142.5 864.666992188 1171 776 1171 c 2
 342 1171 l 1
 342 582 l 1
EndSplineSet
EndChar

StartChar: Q
Encoding: 325 81 69
Width: 1408
GlyphClass: 2
Flags: HW
LayerCount: 2
Fore
SplineSet
408 38 m 1
 178.666992188 144.666992188 64 349.333007812 64 652 c 0
 64 736.666992188 88.5 828 137.5 926 c 128
 231.587890625 1114.17578125 425.794921875 1255 704 1255 c 256
 972 1255 1161.33300781 1144 1272 922 c 0
 1320 827.333007812 1344 733.333007812 1344 640 c 0
 1344 462 1294.5 311.833007812 1195.5 189.5 c 128
 1096.5 67.1669921875 958 -2.3330078125 780 -19 c 1
 884.666992188 -78.3330078125 963.166992188 -108 1015.5 -108 c 128
 1067.83300781 -108 1113.66699219 -100 1153 -84 c 1
 1178 -157 l 1
 1126 -173 1079.83300781 -181 1039.5 -181 c 128
 851.38671875 -181 766.34375 -73.734375 625.5 -25.5 c 128
 601.166992188 -17.1669921875 561.5 -13 506.5 -13 c 128
 451.5 -13 379 -34.6669921875 289 -78 c 1
 271 -7 l 1
 319.666992188 13 365.333007812 28 408 38 c 1
702.5 1182 m 128
 460.768554688 1182 292.217773438 1055.24902344 211.5 890 c 128
 169.166992188 803.333007812 148 717.666992188 148 633 c 0
 148 465 196.5 325.5 293.5 214.5 c 128
 390.5 103.5 527.333007812 48 704 48 c 0
 934.666992188 48 1099.33300781 146 1198 342 c 0
 1239.33300781 426 1260 504 1260 576 c 0
 1260 818 1175 993 1005 1101 c 0
 920.333007812 1155 819.5 1182 702.5 1182 c 128
EndSplineSet
EndChar

StartChar: R
Encoding: 326 82 70
Width: 1276
GlyphClass: 2
Flags: HW
LayerCount: 2
Fore
SplineSet
108 62 m 1
 261 62 l 1
 261 1171 l 1
 95 1171 l 1
 95 1234 l 1
 735 1234 l 2
 849 1234 937.833007812 1201.5 1001.5 1136.5 c 128
 1065.16699219 1071.5 1097 995 1097 907 c 256
 1097 819 1065.16699219 742 1001.5 676 c 128
 937.833007812 610 849 577 735 577 c 2
 734 577 l 1
 1050 62 l 1
 1224 62 l 1
 1224 0 l 1
 992 0 l 1
 650 577 l 1
 342 577 l 1
 342 62 l 1
 512 62 l 1
 512 0 l 1
 108 0 l 1
 108 62 l 1
735 642 m 2
 911.865234375 642 1018 740.965820312 1018 934.5 c 128
 1018 987.5 993.166992188 1040.16699219 943.5 1092.5 c 128
 893.833007812 1144.83300781 824.333007812 1171 735 1171 c 2
 342 1171 l 1
 342 642 l 1
 735 642 l 2
EndSplineSet
EndChar

StartChar: S
Encoding: 327 83 71
Width: 1106
GlyphClass: 2
Flags: HW
LayerCount: 2
Fore
SplineSet
565 1182 m 0
 344.333007812 1182 234 1089.33300781 234 904 c 0
 234 819.333007812 263 761.833007812 321 731.5 c 128
 379 701.166992188 474.833007812 679.333007812 608.5 666 c 128
 742.166992188 652.666992188 849 621.5 929 572.5 c 128
 1009 523.5 1049 448.166992188 1049 346.5 c 128
 1049 244.833007812 1015.33300781 157.833007812 948 85.5 c 128
 880.666992188 13.1669921875 776.5 -23 635.5 -23 c 128
 494.5 -23 359.666992188 22 231 112 c 1
 231 0 l 1
 152 0 l 1
 152 416 l 1
 231 416 l 1
 231 196 l 1
 361 100 499.666992188 52 647 52 c 128
 794.333007812 52 892 108 940 220 c 0
 953.333007812 252 960 289.666992188 960 333 c 0
 960 419 929.333007812 480.5 868 517.5 c 128
 806.666992188 554.5 705.666992188 580 565 594 c 128
 424.333007812 608 318.833007812 638.333007812 248.5 685 c 128
 178.166992188 731.666992188 143 809.333007812 143 918 c 128
 143 1026.66699219 182.5 1110 261.5 1168 c 128
 340.5 1226 437.5 1255 552.5 1255 c 128
 667.5 1255 783 1224.33300781 899 1163 c 1
 899 1234 l 1
 978 1234 l 1
 978 899 l 1
 899 899 l 1
 899 1080 l 1
 797 1148 685.666992188 1182 565 1182 c 0
EndSplineSet
EndChar

StartChar: T
Encoding: 328 84 72
Width: 1033
GlyphClass: 2
Flags: HW
HStem: 0 60<285 460 541 717> 842 21G<-39 37 971 1048> 1164 70<37 460 541 971>
VStem: -39 76<842 1164> 460 81<60 1164> 971 77<842 1164>
LayerCount: 2
Fore
SplineSet
1048 1234 m 1
 1048 842 l 1
 971 842 l 1
 971 1164 l 1
 541 1164 l 1
 541 60 l 1
 717 60 l 1
 717 0 l 1
 285 0 l 1
 285 60 l 1
 460 60 l 1
 460 1164 l 1
 37 1164 l 1
 37 842 l 1
 -39 842 l 1
 -39 1234 l 1
 1048 1234 l 1
EndSplineSet
EndChar

StartChar: U
Encoding: 329 85 73
Width: 1445
GlyphClass: 2
Flags: HW
LayerCount: 2
Fore
SplineSet
1151 1171 m 1
 990 1171 l 1
 990 1234 l 1
 1393 1234 l 1
 1393 1171 l 1
 1233 1171 l 1
 1233 404 l 2
 1233 270 1179.16699219 165.333007812 1071.5 90 c 128
 963.833007812 14.6669921875 838.333007812 -23 695 -23 c 128
 551.666992188 -23 428.666992188 14.3330078125 326 89 c 128
 223.333007812 163.666992188 172 268.666992188 172 404 c 2
 172 1171 l 1
 11 1171 l 1
 11 1234 l 1
 414 1234 l 1
 414 1171 l 1
 253 1171 l 1
 253 406 l 2
 253 292 296.166992188 203.833007812 382.5 141.5 c 128
 468.833007812 79.1669921875 571 48 689 48 c 0
 889.666992188 48 1030.33300781 115.333007812 1111 250 c 0
 1137.66699219 294.666992188 1151 346.666992188 1151 406 c 2
 1151 1171 l 1
EndSplineSet
EndChar

StartChar: V
Encoding: 330 86 74
Width: 1144
GlyphClass: 2
Flags: HW
HStem: 0 21G<492.485 593.583> 1171 63<-98 60 148 305 783 936 1030 1186>
DStem2: 148 1171 60 1171 0.351737 -0.936099<0 1141.85> 544 100 586 0 0.354534 0.935043<0 1140.41>
LayerCount: 2
Fore
SplineSet
500 0 m 1
 60 1171 l 1
 -98 1171 l 1
 -98 1234 l 1
 305 1234 l 1
 305 1171 l 1
 148 1171 l 1
 544 100 l 1
 936 1171 l 1
 783 1171 l 1
 783 1234 l 1
 1186 1234 l 1
 1186 1171 l 1
 1030 1171 l 1
 586 0 l 1
 500 0 l 1
EndSplineSet
EndChar

StartChar: W
Encoding: 331 87 75
Width: 1826
GlyphClass: 2
Flags: HW
HStem: 0 21G<456.322 558.379 1224.37 1324.49> 1171 63<-86 72 160 317 687 840 928 1085 1455 1608 1698 1854>
DStem2: 160 1171 72 1171 0.316714 -0.948521<0 1126.08> 508 100 552 0 0.296091 0.95516<0 1013.3> 928 1171 885 1044 0.309026 -0.951054<107.496 1126.12> 1276 100 1318 0 0.308664 0.951171<0 1121.18>
LayerCount: 2
Fore
SplineSet
1231 0 m 1
 885 1044 l 1
 552 0 l 1
 463 0 l 1
 72 1171 l 1
 -86 1171 l 1
 -86 1234 l 1
 317 1234 l 1
 317 1171 l 1
 160 1171 l 1
 508 100 l 1
 840 1171 l 1
 687 1171 l 1
 687 1234 l 1
 1085 1234 l 1
 1085 1171 l 1
 928 1171 l 1
 1276 100 l 1
 1608 1171 l 1
 1455 1171 l 1
 1455 1234 l 1
 1854 1234 l 1
 1854 1171 l 1
 1698 1171 l 1
 1318 0 l 1
 1231 0 l 1
EndSplineSet
EndChar

StartChar: X
Encoding: 332 88 76
Width: 1276
GlyphClass: 2
Flags: HW
LayerCount: 2
Fore
SplineSet
477 1234 m 1
 477 1171 l 1
 317 1171 l 1
 636 695 l 1
 954 1171 l 1
 794 1171 l 1
 794 1234 l 1
 1197 1234 l 1
 1197 1171 l 1
 1039 1171 l 1
 680 629 l 1
 1061 62 l 1
 1221 62 l 1
 1221 0 l 1
 818 0 l 1
 818 62 l 1
 979 62 l 1
 639 568 l 1
 305 62 l 1
 465 62 l 1
 465 0 l 1
 62 0 l 1
 62 62 l 1
 216 62 l 1
 595 634 l 1
 235 1171 l 1
 74 1171 l 1
 74 1234 l 1
 477 1234 l 1
EndSplineSet
EndChar

StartChar: Y
Encoding: 333 89 77
Width: 1071
GlyphClass: 2
Flags: HW
LayerCount: 2
Fore
SplineSet
-132 1171 m 1
 -132 1234 l 1
 271 1234 l 1
 271 1171 l 1
 114 1171 l 1
 511 508 l 1
 901 1171 l 1
 742 1171 l 1
 742 1234 l 1
 1145 1234 l 1
 1145 1171 l 1
 989 1171 l 1
 550 436 l 1
 550 62 l 1
 710 62 l 1
 710 0 l 1
 307 0 l 1
 307 62 l 1
 468 62 l 1
 468 436 l 1
 26 1171 l 1
 -132 1171 l 1
EndSplineSet
EndChar

StartChar: Z
Encoding: 334 90 78
Width: 1230
GlyphClass: 2
Flags: HW
LayerCount: 2
Fore
SplineSet
188 70 m 1
 1030 70 l 1
 1030 376 l 1
 1107 376 l 1
 1107 0 l 1
 105 0 l 1
 105 96 l 1
 982 1164 l 1
 201 1164 l 1
 201 870 l 1
 124 870 l 1
 124 1234 l 1
 1071 1234 l 1
 1071 1153 l 1
 188 70 l 1
EndSplineSet
EndChar

StartChar: bracketleft
Encoding: 335 91 79
Width: 519
GlyphClass: 2
Flags: HW
LayerCount: 2
Fore
SplineSet
421 1255 m 1
 421 1193 l 1
 261 1193 l 1
 261 40 l 1
 421 40 l 1
 421 -23 l 1
 179 -23 l 1
 179 1255 l 1
 421 1255 l 1
EndSplineSet
EndChar

StartChar: backslash
Encoding: 336 92 80
Width: 540
GlyphClass: 2
Flags: HW
LayerCount: 2
Fore
SplineSet
500 -23 m 1
 424 -23 l 1
 57 1255 l 1
 128 1255 l 1
 500 -23 l 1
EndSplineSet
EndChar

StartChar: bracketright
Encoding: 337 93 81
Width: 523
GlyphClass: 2
Flags: HW
LayerCount: 2
Fore
SplineSet
344 1255 m 1
 344 -23 l 1
 102 -23 l 1
 102 40 l 1
 263 40 l 1
 263 1193 l 1
 102 1193 l 1
 102 1255 l 1
 344 1255 l 1
EndSplineSet
EndChar

StartChar: asciicircum
Encoding: 338 94 82
Width: 886
GlyphClass: 2
Flags: HW
LayerCount: 2
Fore
SplineSet
821 761 m 1
 749 761 l 1
 448 1186 l 1
 134 761 l 1
 60 761 l 1
 406 1255 l 1
 491 1255 l 1
 821 761 l 1
EndSplineSet
EndChar

StartChar: underscore
Encoding: 339 95 83
Width: 999
GlyphClass: 2
Flags: HW
LayerCount: 2
Fore
SplineSet
867 -62 m 1
 135 -62 l 1
 135 0 l 1
 867 0 l 1
 867 -62 l 1
EndSplineSet
EndChar

StartChar: grave
Encoding: 340 96 84
Width: 413
GlyphClass: 2
Flags: HW
LayerCount: 2
Fore
SplineSet
258 985 m 1
 101 1234 l 1
 228 1234 l 1
 289 985 l 1
 258 985 l 1
EndSplineSet
EndChar

StartChar: a
Encoding: 341 97 85
Width: 951
GlyphClass: 2
Flags: HW
HStem: -14 67<225.27 516.502 738 891> 410 65<222.787 653.676> 787 67<229.543 569.784>
VStem: 64 81<120.737 347.914> 658 80<127.751 390.798 446 710.274>
LayerCount: 2
Fore
SplineSet
325.5 -14 m 0
 168.446289062 -14 64 76.52734375 64 248 c 0
 64 398.666992188 171 474.333007812 385 475 c 0
 469 475 560 465.333007812 658 446 c 1
 658 575 l 2
 658 716.333007812 578.666992188 787 420 787 c 0
 293.333007812 787 200 756.666992188 140 696 c 1
 104 755 l 1
 172.666992188 821 285.166992188 854 441.5 854 c 0
 597.833007812 854 692.333007812 795.666992188 725 679 c 0
 733.666992188 648.333007812 738 619.666992188 738 593 c 2
 738 60 l 1
 891 60 l 1
 891 0 l 1
 674 0 l 1
 658 95 l 1
 558.666992188 22.3330078125 447.833007812 -14 325.5 -14 c 0
145 231.5 m 0
 145 119.025390625 229.083007812 53 360 53 c 0
 482.666992188 53 582 88 658 158 c 1
 658 384 l 1
 571.333007812 401.333007812 490 410 414 410 c 0
 251.12109375 410 145 377.951171875 145 231.5 c 0
EndSplineSet
EndChar

StartChar: b
Encoding: 342 98 86
Width: 1160
GlyphClass: 2
Flags: HW
LayerCount: 2
Fore
SplineSet
343 1234 m 1
 343 695 l 1
 433 801 549.166992188 854 691.5 854 c 128
 833.833007812 854 944.333007812 812.166992188 1023 728.5 c 128
 1101.66699219 644.833007812 1141 546.666992188 1141 434 c 0
 1141 268.666992188 1076.66699219 141 948 51 c 128
 819.333007812 -39 663.333007812 -44 480 36 c 0
 417.333007812 63.3330078125 371.666992188 93 343 125 c 1
 340.333007812 103.666992188 338 82.6669921875 336 62 c 128
 333 31 333 31 330 0 c 1
 99 0 l 1
 99 60 l 1
 264 60 l 1
 264 1174 l 1
 115 1174 l 1
 115 1234 l 1
 343 1234 l 1
1062 388 m 0
 1062 636.7109375 931.767578125 787 687 787 c 128
 567.666992188 787 453 731 343 619 c 1
 343 193 l 1
 463 99.6669921875 581.833007812 53 699.5 53 c 128
 817.166992188 53 907 90.3330078125 969 165 c 128
 1031 239.666992188 1062 314 1062 388 c 0
EndSplineSet
EndChar

StartChar: c
Encoding: 343 99 87
Width: 905
GlyphClass: 2
Flags: W
HStem: -13 67<327.335 646.156> 787 73<313.337 640.406>
VStem: 31 82<243.218 603.587> 736 76<600 708.619 750 860>
LayerCount: 2
Fore
SplineSet
746 600 m 1
 734.366210938 722.155273438 628.1953125 784.885742188 476 787 c 1
 375.333007812 787 289.666992188 754.5 219 689.5 c 0
 148.333007812 624.5 113 535.5 113 422.5 c 0
 113 309.5 148.666992188 220.166992188 220 154.5 c 0
 291.333007812 88.8330078125 376 55.3330078125 474 54 c 1
 618 54 732.666992188 110 818 222 c 1
 841 149 l 1
 732.333007812 40.3330078125 613.5 -13.6669921875 484.5 -13 c 0
 230.951171875 -11.689453125 31 164.600585938 31 418.5 c 0
 31 677.333984375 211.48046875 849.274414062 471.5 852.5 c 0
 605.833007812 854.166992188 694 820 736 750 c 1
 736 860 l 1
 812 860 l 1
 812 600 l 1
 746 600 l 1
EndSplineSet
EndChar

StartChar: d
Encoding: 344 100 88
Width: 1133
GlyphClass: 2
Flags: HW
HStem: -14 67<297.603 629.531 897 1062> 787 67<299.61 628.979> 1174 60<614 818>
VStem: 20 79<241.063 598.811> 818 79<164.05 653.74 695 1174>
LayerCount: 2
Fore
SplineSet
818 125 m 1
 734.666992188 32.3330078125 599.333007812 -14 412 -14 c 0
 253.57421875 -14 116.5390625 108.251953125 65 224.5 c 0
 35 292.166992188 20 357.333007812 20 420 c 0
 20 542.666992188 59.3330078125 645.666992188 138 729 c 0
 216.666992188 812.333007812 327.166992188 854 469.5 854 c 0
 611.833007812 854 728 801 818 695 c 1
 818 1174 l 1
 614 1174 l 1
 614 1234 l 1
 897 1234 l 1
 897 60 l 1
 1062 60 l 1
 1062 0 l 1
 831 0 l 1
 818 125 l 1
453 53 m 0
 576.333007812 53 698 99.6669921875 818 193 c 1
 818 619 l 1
 708 731 593.333007812 787 474 787 c 0
 354.666992188 787 262.333007812 752.5 197 683.5 c 0
 131.666992188 614.5 99 528.666992188 99 426 c 0
 99 264.666992188 165 151.333007812 297 86 c 0
 341 64 393 53 453 53 c 0
EndSplineSet
EndChar

StartChar: e
Encoding: 345 101 89
Width: 900
GlyphClass: 2
Flags: W
HStem: -14 66<314.172 635.963> 400 66<117 788> 787 67<312.631 615.382>
VStem: 33 82<236.5 400 466 602.076>
LayerCount: 2
Fore
SplineSet
843 149 m 1
 728.333007812 40.3330078125 606.333007812 -14 477 -14 c 0
 347.666992188 -14 241.333007812 27.1669921875 158 109.5 c 0
 74.6669921875 191.833007812 33 293.5 33 414.5 c 0
 33 535.5 72.5 639 151.5 725 c 0
 230.5 811 334.5 854 463.5 854 c 0
 592.5 854 691.833007812 810.333007812 761.5 723 c 0
 831.166992188 635.666992188 866 528 866 400 c 1
 115 400 l 1
 126.333007812 232.666992188 200.666992188 124 338 74 c 0
 378 59.3330078125 420 52 464 52 c 0
 598.666992188 52 714 102.666992188 810 204 c 1
 843 149 l 1
788 466 m 1
 774 608.666992188 713 706.666992188 605 760 c 0
 568.333007812 778 524 787 472 787 c 0
 368 787 284 755 220 691 c 0
 156 627 121.666992188 552 117 466 c 1
 788 466 l 1
EndSplineSet
EndChar

StartChar: f
Encoding: 346 102 90
Width: 655
GlyphClass: 2
Flags: HW
HStem: 0 60<107 262 341 532> 779 57<107 262 341 544> 1172 62<366.805 491.395>
VStem: 262 79<60 779 836 1153.47> 510 75<1066 1160.59>
LayerCount: 2
Fore
SplineSet
262 1064 m 2
 262 1168.79589844 326.928710938 1234 445 1234 c 0
 524.64453125 1234 582.830078125 1153.87207031 585 1066 c 1
 510 1066 l 1
 510 1136.66699219 483 1172 429 1172 c 0
 377.111328125 1172 341 1121.79980469 341 1066 c 2
 341 836 l 1
 544 836 l 1
 544 779 l 1
 341 779 l 1
 341 60 l 1
 532 60 l 1
 532 0 l 1
 107 0 l 1
 107 60 l 1
 262 60 l 1
 262 779 l 1
 107 779 l 1
 107 836 l 1
 262 836 l 1
 262 1064 l 2
EndSplineSet
EndChar

StartChar: g
Encoding: 347 103 91
Width: 1085
GlyphClass: 2
Flags: HW
HStem: -317 69<237 657.885> -14 67<304.39 654.612> 787 67<298.176 624.77 886 1050>
VStem: 33 80<249.588 602.941> 807 79<-127.854 120 158.052 675.95>
LayerCount: 2
Fore
SplineSet
807 120 m 1
 721 30.6669921875 608.666992188 -14 470 -14 c 0
 331.333007812 -14 223.833007812 29 147.5 115 c 0
 71.1669921875 201 33 300.666992188 33 414 c 0
 33 527.333007812 68.5 629 139.5 719 c 0
 210.5 809 308.666992188 854 434 854 c 0
 559.333007812 854 666.666992188 822 756 758 c 0
 778.666992188 742 795.666992188 727.666992188 807 715 c 1
 820 840 l 1
 1050 840 l 1
 1050 780 l 1
 886 780 l 1
 886 29 l 2
 886 -126.333007812 821.666992188 -226.666992188 693 -272 c 0
 619 -298 539.166992188 -312 453.5 -314 c 0
 367.833007812 -316 295.666992188 -317 237 -317 c 1
 237 -248 l 1
 386 -248 l 2
 552 -248 663.666992188 -226 721 -182 c 0
 778.333007812 -138 807 -73.3330078125 807 12 c 2
 807 120 l 1
807 647 m 1
 689 740.333007812 573 787 459 787 c 0
 345 787 258.666992188 750 200 676 c 0
 141.333007812 602 112.333007812 527.333007812 113 452 c 0
 115.426757812 220.27734375 236.01953125 53 458 53 c 0
 559.333007812 53 634.666992188 68.5 684 99.5 c 0
 733.333007812 130.5 774.333007812 160.666992188 807 190 c 1
 807 647 l 1
EndSplineSet
EndChar

StartChar: h
Encoding: 348 104 92
Width: 1188
GlyphClass: 2
Flags: W
HStem: 0 60<106 268 347 539 732 890 969 1144> 787 67<526.323 824.767> 1176 58<95 268>
VStem: 268 79<60 686.046 736 1176> 890 79<60 728.148>
LayerCount: 2
Fore
SplineSet
95 1176 m 1
 95 1234 l 1
 347 1234 l 1
 347 736 l 1
 459 798 537.833007812 833.166992188 583.5 841.5 c 0
 629.166992188 849.833007812 670.666992188 854 708 854 c 0
 797.333007812 854 863.166992188 830.5 905.5 783.5 c 0
 947.833007812 736.5 969 681 969 617 c 2
 969 60 l 1
 1144 60 l 1
 1144 0 l 1
 732 0 l 1
 732 60 l 1
 890 60 l 1
 890 601 l 2
 890 725 825.333007812 787 696 787 c 0
 612 787 522.666992188 761 428 709 c 0
 401.333007812 694.333007812 374.333007812 679.333007812 347 664 c 1
 347 60 l 1
 539 60 l 1
 539 0 l 1
 106 0 l 1
 106 60 l 1
 268 60 l 1
 268 1176 l 1
 95 1176 l 1
EndSplineSet
EndChar

StartChar: i
Encoding: 349 105 93
Width: 577
GlyphClass: 2
Flags: HW
HStem: 0 60<115 265 344 498> 776 60<115 265> 1092 113<240.226 362.493>
VStem: 239 125<1094.42 1203> 265 79<60 776>
LayerCount: 2
Fore
SplineSet
300.5 1092 m 0xf0
 264.456054688 1092 239 1115.52539062 239 1148 c 0
 239 1186 259.666992188 1205 301 1205 c 256
 337.875 1205 364 1182.45605469 364 1149 c 0
 364 1115.80761719 336.897460938 1092 300.5 1092 c 0xf0
115 776 m 1
 115 836 l 1
 344 836 l 1
 344 60 l 1
 498 60 l 1
 498 0 l 1
 115 0 l 1
 115 60 l 1
 265 60 l 1
 265 776 l 1xe8
 115 776 l 1
EndSplineSet
EndChar

StartChar: j
Encoding: 350 106 94
Width: 410
GlyphClass: 2
Flags: HW
LayerCount: 2
Fore
SplineSet
158 779 m 1
 21 779 l 1
 21 836 l 1
 237 836 l 1
 237 -22 l 2
 237.666992188 -104 230 -158.666992188 214 -186 c 0
 181.333007812 -242.666992188 117.666992188 -271 23 -271 c 2
 -57 -271 l 1
 -57 -211 l 1
 21 -211 l 2
 83.6669921875 -211 122.166992188 -198.666992188 136.5 -174 c 0
 150.833007812 -149.333007812 158 -102.666992188 158 -34 c 2
 158 779 l 1
187.5 1092 m 128
 151.456054688 1092 126 1115.52539062 126 1148 c 0
 126 1186 146.666992188 1205 188 1205 c 256
 229.333007812 1205 250 1186 250 1148 c 0
 250 1115.60839844 223.421875 1092 187.5 1092 c 128
EndSplineSet
EndChar

StartChar: k
Encoding: 351 107 95
Width: 1123
GlyphClass: 2
Flags: HW
LayerCount: 2
Fore
SplineSet
102 1174 m 1
 102 1234 l 1
 367 1234 l 1
 367 454 l 1
 761 776 l 1
 637 776 l 1
 637 836 l 1
 1022 836 l 1
 1022 776 l 1
 863 776 l 1
 460 439 l 1
 906 60 l 1
 1057 60 l 1
 1057 0 l 1
 674 0 l 1
 674 60 l 1
 797 60 l 1
 367 431 l 1
 367 60 l 1
 551 60 l 1
 551 0 l 1
 102 0 l 1
 102 60 l 1
 288 60 l 1
 288 1174 l 1
 102 1174 l 1
EndSplineSet
EndChar

StartChar: l
Encoding: 352 108 96
Width: 614
GlyphClass: 2
Flags: HW
HStem: 0 60<102 288 367 551> 1174 60<102 288>
VStem: 288 79<60 1174>
LayerCount: 2
Fore
SplineSet
102 1174 m 1
 102 1234 l 1
 367 1234 l 1
 367 60 l 1
 551 60 l 1
 551 0 l 1
 102 0 l 1
 102 60 l 1
 288 60 l 1
 288 1174 l 1
 102 1174 l 1
EndSplineSet
EndChar

StartChar: m
Encoding: 353 109 97
Width: 1635
GlyphClass: 2
Flags: HW
HStem: 0 60<96 258 337 493 635 792 871 1047 1169 1326 1405 1581> 779 57<85 258> 834 20G<639 701.667 1140.67 1259.88>
VStem: 258 79<60 687.754> 792 79<60 663.25> 1326 79<60 742.509>
CounterMasks: 1 1c
LayerCount: 2
Fore
SplineSet
1194 854 m 0xbc
 1325.76757812 854 1405 764.861328125 1405 617 c 2
 1405 60 l 1
 1581 60 l 1
 1581 0 l 1
 1169 0 l 1
 1169 60 l 1
 1326 60 l 1
 1326 601 l 2
 1325.33300781 691 1301.66699219 748 1255 772 c 0
 1197.07226562 800.963867188 1093.26855469 785.268554688 1034.5 758 c 0
 992.833007812 738.666992188 937.333007812 707.333007812 868 664 c 1
 870 648 871 632.333007812 871 617 c 2
 871 60 l 1
 1047 60 l 1
 1047 0 l 1
 635 0 l 1
 635 60 l 1
 792 60 l 1
 792 601 l 2
 791.333007812 691 767.666992188 748 721 772 c 0
 664.62890625 800.185546875 560.041015625 785.607421875 503.5 759 c 0
 463.833007812 740.333007812 408.333007812 708.666992188 337 664 c 1
 337 60 l 1
 493 60 l 1
 493 0 l 1
 96 0 l 1
 96 60 l 1
 258 60 l 1
 258 779 l 1
 85 779 l 1
 85 836 l 1
 325 836 l 1xdc
 334 736 l 1
 432.666992188 798 503.166992188 833.166992188 545.5 841.5 c 0
 587.833007812 849.833007812 624 854 654 854 c 0
 749.333007812 854 815 811.666992188 851 727 c 1
 973 811.666992188 1087.33300781 854 1194 854 c 0xbc
EndSplineSet
EndChar

StartChar: n
Encoding: 354 110 98
Width: 1181
GlyphClass: 2
Flags: W
HStem: 0 60<78 259 339 521 700 857 936 1111> 779 57<79 259> 787 67<503.228 796.58>
VStem: 259 80<60 692.608> 857 79<60 735.15>
LayerCount: 2
Fore
SplineSet
857 601 m 2xb8
 856.0390625 730.74609375 800.4921875 784.77734375 676 787 c 1xb8
 564.666992188 787 452.333007812 747.333007812 339 668 c 1
 339 60 l 1
 521 60 l 1
 521 0 l 1
 78 0 l 1
 78 60 l 1
 259 60 l 1
 259 779 l 1
 79 779 l 1
 79 836 l 1
 327 836 l 1xd8
 335 736 l 1
 454.333007812 814.666992188 574.666992188 854 696 854 c 0
 842.5703125 854 936 771.181640625 936 617 c 2
 936 60 l 1
 1111 60 l 1
 1111 0 l 1
 700 0 l 1
 700 60 l 1
 857 60 l 1
 857 601 l 2xb8
EndSplineSet
EndChar

StartChar: o
Encoding: 355 111 99
Width: 986
GlyphClass: 2
Flags: W
HStem: -14 67<331.719 652.28> 787 67<334.172 651.882>
VStem: 42 82<240.171 600.747> 864 80<244.342 599.071>
LayerCount: 2
Fore
SplineSet
752.5 690.5 m 0
 678.166992188 754.833007812 591.333007812 787 492 787 c 0
 392.666992188 787 306.5 754.666992188 233.5 690 c 0
 160.5 625.333007812 124 535.833007812 124 421.5 c 0
 124 307.166992188 160.333007812 217.166992188 233 151.5 c 0
 305.666992188 85.8330078125 392 53 492 53 c 0
 592 53 679 85.8330078125 753 151.5 c 0
 827 217.166992188 864 307.333007812 864 422 c 0
 864 536.666992188 826.833007812 626.166992188 752.5 690.5 c 0
809 102 m 0
 719 24.6669921875 613.166992188 -14 491.5 -14 c 0
 369.833007812 -14 264.5 24.8330078125 175.5 102.5 c 0
 86.5 180.166992188 42 286.833007812 42 422.5 c 0
 42 558.166992188 86.3330078125 664 175 740 c 0
 263.666992188 816 369 854 491 854 c 0
 613 854 719 816 809 740 c 0
 899 664 944 558 944 422 c 0
 944 286 899 179.333007812 809 102 c 0
EndSplineSet
EndChar

StartChar: p
Encoding: 356 112 100
Width: 1101
GlyphClass: 2
Flags: HW
LayerCount: 2
Fore
SplineSet
273 715 m 1
 381 807.666992188 516.333007812 854 679 854 c 0
 837.42578125 854 974.4609375 731.748046875 1026 615.5 c 128
 1056 547.833007812 1071 482.666992188 1071 420 c 0
 1071 297.333007812 1031.66699219 194.333007812 953 111 c 128
 874.333007812 27.6669921875 763.833007812 -14 621.5 -14 c 128
 479.166992188 -14 363 39 273 145 c 1
 273 -262 l 1
 420 -262 l 1
 420 -322 l 1
 45 -322 l 1
 45 -262 l 1
 194 -262 l 1
 194 780 l 1
 29 780 l 1
 29 840 l 1
 260 840 l 1
 273 715 l 1
638 787 m 0
 514.666992188 787 393 740.333007812 273 647 c 1
 273 221 l 1
 383 109 497.666992188 53 617 53 c 128
 736.333007812 53 828.666992188 87.5 894 156.5 c 128
 959.333007812 225.5 992 311.333007812 992 414 c 0
 992 575.333007812 926 688.666992188 794 754 c 0
 750 776 698 787 638 787 c 0
EndSplineSet
EndChar

StartChar: q
Encoding: 357 113 101
Width: 1111
GlyphClass: 2
Flags: HW
LayerCount: 2
Fore
SplineSet
449.505859375 854 m 128
 602.395507812 854 763.724609375 790.103515625 831.005859375 715 c 1
 845.005859375 840 l 1
 1075.00585938 840 l 1
 1075.00585938 780 l 1
 911.005859375 780 l 1
 911.005859375 -262 l 1
 1059.00585938 -262 l 1
 1059.00585938 -322 l 1
 684.005859375 -322 l 1
 684.005859375 -262 l 1
 831.005859375 -262 l 1
 831.005859375 97 l 1
 741.005859375 23 624.838867188 -14 482.505859375 -14 c 128
 340.171875 -14 229.671875 27.8330078125 151.005859375 111.5 c 128
 72.3388671875 195.166992188 33.005859375 293.333007812 33.005859375 406 c 0
 32.3388671875 571.333007812 92.671875 696.333007812 214.005859375 781 c 0
 283.338867188 829.666992188 361.838867188 854 449.505859375 854 c 128
113.005859375 452 m 0
 113.005859375 199.884765625 243.862304688 53 495.005859375 53 c 128
 619.671875 53 731.671875 89.6669921875 831.005859375 163 c 1
 831.005859375 647 l 1
 711.005859375 740.333007812 592.338867188 787 475.005859375 787 c 128
 357.671875 787 268.005859375 749.666992188 206.005859375 675 c 128
 144.005859375 600.333007812 113.005859375 526 113.005859375 452 c 0
EndSplineSet
EndChar

StartChar: r
Encoding: 358 114 102
Width: 740
GlyphClass: 2
Flags: HW
HStem: 0 60<93 277 356 539> 779 57<94 277> 787 67<469.765 718.626>
VStem: 277 79<60 670.046>
LayerCount: 2
Fore
SplineSet
566.5 787 m 0xb0
 424.920898438 787 356 627.661132812 356 468 c 2
 356 60 l 1
 539 60 l 1
 539 0 l 1
 93 0 l 1
 93 60 l 1
 277 60 l 1
 277 779 l 1
 94 779 l 1
 94 836 l 1
 344 836 l 1xd0
 356 652 l 1
 384.345703125 756.311523438 456.829101562 854 579.5 854 c 0
 633.166992188 854 689.666992188 840.666992188 749 814 c 1
 737 746 l 1
 681 773.333007812 624.166992188 787 566.5 787 c 0xb0
EndSplineSet
EndChar

StartChar: s
Encoding: 359 115 103
Width: 871
GlyphClass: 2
Flags: HW
HStem: -14 67.5<282.481 632.184> 786 67<299.238 612.012> 816 20G<686 756>
VStem: 131 68<0 73 120.438 268> 135 82<533.457 719.525> 686 70<572 728.214 776 836> 733 80<126.601 331.147>
LayerCount: 2
Fore
SplineSet
813 227.5 m 0xca
 813 51.1240234375 637.504882812 -14 449 -14 c 0
 340.333007812 -14 257 15 199 73 c 1
 199 0 l 1
 131 0 l 1
 131 268 l 1
 199 268 l 1
 199 168 l 1xd2
 236.333007812 91.3330078125 320.666992188 53.1669921875 452 53.5 c 0
 583.333007812 53.8330078125 670 85.3330078125 712 148 c 0
 726 169.333007812 733 201 733 243 c 0
 733 327 663.333007812 376.833007812 524 392.5 c 0
 384.666992188 408.166992188 285 431 225 461 c 0
 165 491 135 544 135 620 c 0
 134.333007812 734.666992188 196.666992188 808 322 840 c 0
 358 849.333007812 394.666992188 853.666992188 432 853 c 0xca
 544 853 628.666992188 827.333007812 686 776 c 1
 686 836 l 1
 756 836 l 1
 756 572 l 1
 686 572 l 1
 686 695 l 1xac
 636.666992188 755.666992188 559.333007812 786 454 786 c 0
 348.666992188 786 276.333007812 756 237 696 c 0
 223.666992188 676 217 650.666992188 217 620 c 0
 217 565.333007812 248 526.666992188 310 504 c 0
 340 492.666992188 405.166992188 479.833007812 505.5 465.5 c 0
 605.833007812 451.166992188 682.166992188 427.666992188 734.5 395 c 0
 786.833007812 362.333007812 813 306.5 813 227.5 c 0xca
EndSplineSet
EndChar

StartChar: t
Encoding: 360 116 104
Width: 540
GlyphClass: 2
Flags: HW
HStem: 0 60<262.942 449> 781 55<30 155 234 433>
VStem: 155 79<82.6561 781 836 1148>
LayerCount: 2
Fore
SplineSet
30 781 m 1
 30 836 l 1
 155 836 l 1
 155 1148 l 1
 234 1166 l 1
 234 836 l 1
 433 836 l 1
 433 781 l 1
 234 781 l 1
 234 238 l 2
 234 169.333007812 241.166992188 122.5 255.5 97.5 c 0
 269.833007812 72.5 308.333007812 60 371 60 c 2
 449 60 l 1
 449 0 l 1
 368 0 l 2
 236.666992188 0 167 53.3330078125 159 160 c 0
 156.333007812 189.333007812 155 219.333007812 155 250 c 2
 155 781 l 1
 30 781 l 1
EndSplineSet
EndChar

StartChar: u
Encoding: 361 117 105
Width: 1072
GlyphClass: 2
Flags: HW
LayerCount: 2
Fore
SplineSet
251 239 m 2
 251 106.084960938 312.204101562 55.1279296875 442 53 c 1
 532 53 640.333007812 93 767 173 c 1
 767 776 l 1
 593 776 l 1
 593 836 l 1
 846 836 l 1
 846 58 l 1
 1019 58 l 1
 1019 0 l 1
 779 0 l 1
 771 104 l 1
 668.333007812 42.6669921875 594.5 7.6669921875 549.5 -1 c 128
 504.5 -9.6669921875 451 -14 389 -14 c 128
 263.786132812 -14 172 97.0244140625 172 223 c 2
 172 776 l 1
 -3 776 l 1
 -3 836 l 1
 251 836 l 1
 251 239 l 2
EndSplineSet
EndChar

StartChar: v
Encoding: 362 118 106
Width: 988
GlyphClass: 2
Flags: HW
LayerCount: 2
Fore
SplineSet
186 776 m 1
 488 71 l 1
 766 776 l 1
 623 776 l 1
 623 836 l 1
 1015 836 l 1
 1015 776 l 1
 856 776 l 1
 536 0 l 1
 446 0 l 1
 104 776 l 1
 -60 776 l 1
 -60 836 l 1
 338 836 l 1
 338 776 l 1
 186 776 l 1
EndSplineSet
EndChar

StartChar: w
Encoding: 363 119 107
Width: 1517
GlyphClass: 2
Flags: HW
HStem: 0 21G<385.784 490.465 1003.59 1108.19> 776 60<-51 113 191 344 555 698 789 935 1148 1290 1380 1540>
DStem2: 191 776 113 776 0.339406 -0.94064<0 752.289> 437 65 483 0 0.349677 0.93687<0 713.031> 789 776 748 710 0.346928 -0.937892<47.6768 758.083> 1052 65 1101 0 0.338333 0.941026<0 749.593>
LayerCount: 2
Fore
SplineSet
191 776 m 1
 437 65 l 1
 698 776 l 1
 555 776 l 1
 555 836 l 1
 935 836 l 1
 935 776 l 1
 789 776 l 1
 1052 65 l 1
 1290 776 l 1
 1148 776 l 1
 1148 836 l 1
 1540 836 l 1
 1540 776 l 1
 1380 776 l 1
 1101 0 l 1
 1011 0 l 1
 748 710 l 1
 483 0 l 1
 393 0 l 1
 113 776 l 1
 -51 776 l 1
 -51 836 l 1
 344 836 l 1
 344 776 l 1
 191 776 l 1
EndSplineSet
EndChar

StartChar: x
Encoding: 364 120 108
Width: 1168
GlyphClass: 2
Flags: W
HStem: 0 60<67 217 312 450 680 844 924 1075> 776 60<91 240 318 475 667 815 905 1064>
DStem2: 217 60 312 60 0.641028 0.767518<60.8976 473.559 548.126 932.877> 318 776 240 776 0.646038 -0.763305<0 386.685 469.827 886.343>
LayerCount: 2
Fore
SplineSet
318 776 m 1
 568 481 l 1
 815 776 l 1
 667 776 l 1
 667 836 l 1
 1064 836 l 1
 1064 776 l 1
 905 776 l 1
 614 426 l 1
 924 60 l 1
 1075 60 l 1
 1075 0 l 1
 680 0 l 1
 680 60 l 1
 844 60 l 1
 575 378 l 1
 312 60 l 1
 450 60 l 1
 450 0 l 1
 67 0 l 1
 67 60 l 1
 217 60 l 1
 528 433 l 1
 240 776 l 1
 91 776 l 1
 91 836 l 1
 475 836 l 1
 475 776 l 1
 318 776 l 1
EndSplineSet
EndChar

StartChar: y
Encoding: 365 121 109
Width: 984
GlyphClass: 2
Flags: HW
LayerCount: 2
Fore
SplineSet
109 -206 m 1
 204.333007812 -206 272.5 -201 313.5 -191 c 0
 354.5 -181 385.666992188 -152 407 -104 c 2
 477 58 l 1
 421 58 l 1
 101 776 l 1
 -63 776 l 1
 -63 836 l 1
 336 836 l 1
 336 776 l 1
 188 776 l 1
 487 89 l 1
 763 776 l 1
 620 776 l 1
 620 836 l 1
 1013 836 l 1
 1013 776 l 1
 854 776 l 1
 480 -127 l 1
 440 -219.666992188 358 -268 234 -272 c 0
 195.333007812 -273.333007812 153.666992188 -274 109 -274 c 1
 109 -206 l 1
EndSplineSet
EndChar

StartChar: z
Encoding: 366 122 110
Width: 895
GlyphClass: 2
Flags: HW
LayerCount: 2
Fore
SplineSet
97 0 m 1
 97 67 l 1
 673 776 l 1
 202 776 l 1
 202 583 l 1
 133 583 l 1
 133 836 l 1
 756 836 l 1
 756 764 l 1
 187 58 l 1
 705 58 l 1
 705 277 l 1
 774 277 l 1
 774 0 l 1
 97 0 l 1
EndSplineSet
EndChar

StartChar: braceleft
Encoding: 367 123 111
Width: 558
GlyphClass: 2
Flags: HW
LayerCount: 2
Fore
SplineSet
302 212 m 128
 302 66.6962890625 331.3359375 31 476 31 c 1
 476 -23 l 1
 411 -23 l 2
 287.666992188 -23.6669921875 223.666992188 45.3330078125 219 184 c 0
 217.666992188 226.666992188 217 286.666992188 217 364 c 128
 217 441.333007812 209.666992188 495.666992188 195 527 c 128
 180.333007812 558.333007812 138.333007812 574 69 574 c 1
 69 658 l 1
 138.333007812 658 180.333007812 673.666992188 195 705 c 128
 209.666992188 736.333007812 217 810.166992188 217 926.5 c 128
 217 1042.83300781 224.333007812 1119.66699219 239 1157 c 0
 264.333007812 1222.33300781 321.666992188 1255 411 1255 c 2
 476 1255 l 1
 476 1201 l 1
 404 1201 357 1189.16699219 335 1165.5 c 128
 313 1141.83300781 302 1074.33300781 302 963 c 128
 302 851.666992188 293.666992188 767 277 709 c 128
 260.333007812 651 223 620 165 616 c 1
 245.666992188 610.666992188 290 536 298 392 c 0
 300.666992188 344.666992188 302 284.666992188 302 212 c 128
EndSplineSet
EndChar

StartChar: bar
Encoding: 368 124 112
Width: 426
GlyphClass: 2
Flags: HW
LayerCount: 2
Fore
SplineSet
179 1255 m 1
 247 1255 l 1
 247 -23 l 1
 179 -23 l 1
 179 1255 l 1
EndSplineSet
EndChar

StartChar: braceright
Encoding: 369 125 113
Width: 561
GlyphClass: 2
Flags: HW
LayerCount: 2
Fore
SplineSet
262 1021.5 m 128
 262 1168.28222656 234.720703125 1201 88 1201 c 1
 88 1255 l 1
 153 1255 l 2
 277 1255.66699219 341.333007812 1186.66699219 346 1048 c 0
 347.333007812 1005.33300781 348 945.333007812 348 868 c 128
 348 790.666992188 355.333007812 736.333007812 370 705 c 128
 384.666992188 673.666992188 426.333007812 658 495 658 c 1
 495 574 l 1
 426.333007812 574 384.666992188 558.333007812 370 527 c 128
 355.333007812 495.666992188 348 421.833007812 348 305.5 c 128
 348 189.166992188 340.666992188 112.333007812 326 75 c 0
 300.666992188 9.6669921875 243 -23 153 -23 c 2
 88 -23 l 1
 88 31 l 1
 160 31 207 42.8330078125 229 66.5 c 128
 251 90.1669921875 262 157.666992188 262 269 c 128
 262 380.333007812 270.666992188 465 288 523 c 128
 305.333007812 581 342.333007812 612 399 616 c 1
 318.333007812 621.333007812 274 696 266 840 c 0
 263.333007812 888 262 948.5 262 1021.5 c 128
EndSplineSet
EndChar

StartChar: asciitilde
Encoding: 370 126 114
Width: 783
GlyphClass: 2
Flags: HW
LayerCount: 2
Fore
SplineSet
245 1157 m 0
 305.641601562 1157 499.099609375 1110 557 1110 c 128
 589 1110 610 1124.33300781 620 1153 c 1
 657 1153 l 1
 647 1065.66699219 605.666992188 1022 533 1022 c 0
 493.666992188 1022 437 1029.83300781 363 1045.5 c 128
 289 1061.16699219 238.5 1069 211.5 1069 c 128
 184.5 1069 167 1055.33300781 159 1028 c 1
 121 1028 l 1
 131 1114 172.333007812 1157 245 1157 c 0
EndSplineSet
EndChar

StartChar: exclamdown
Encoding: 371 161 115
Width: 433
GlyphClass: 2
Flags: HW
LayerCount: 2
Fore
SplineSet
165 1171 m 1
 268 1171 l 1
 270 1066 l 1
 165 1066 l 1
 165 1171 l 1
232 827 m 1
 261 362 l 1
 261 0 l 1
 172 0 l 1
 172 362 l 1
 201 827 l 1
 232 827 l 1
EndSplineSet
EndChar

StartChar: cent
Encoding: 372 162 116
Width: 924
GlyphClass: 2
Flags: HW
LayerCount: 2
Fore
SplineSet
841.043945312 149 m 1
 732.376953125 40.3330078125 608.709960938 -14 470.043945312 -14 c 1
 433.376953125 -12.6669921875 399.376953125 -8.3330078125 368.043945312 -1 c 1
 307.043945312 -214 l 1
 244.043945312 -214 l 1
 311.043945312 15 l 1
 182.376953125 62.3330078125 96.0439453125 150 52.0439453125 278 c 0
 37.376953125 320.666992188 30.376953125 370 31.0439453125 426 c 0
 31.0439453125 547.333007812 70.876953125 648.333007812 150.543945312 729 c 128
 230.209960938 809.666992188 338.043945312 851.333007812 474.043945312 854 c 0
 497.376953125 854 523.709960938 851.666992188 553.043945312 847 c 1
 616.043945312 1064 l 1
 674.043945312 1064 l 1
 608.043945312 834 l 1
 669.376953125 816 712.043945312 788 736.043945312 750 c 1
 736.043945312 860 l 1
 812.043945312 860 l 1
 812.043945312 600 l 1
 746.043945312 600 l 1
 735.376953125 690 683.376953125 747.666992188 590.043945312 773 c 1
 387.043945312 65 l 1
 416.376953125 57.6669921875 445.376953125 54 474.043945312 54 c 0
 618.043945312 54 732.709960938 110 818.043945312 222 c 1
 841.043945312 149 l 1
534.043945312 783 m 1
 515.376953125 785.666992188 489.043945312 787 455.043945312 787 c 0
 368.376953125 787 289.709960938 754.5 219.043945312 689.5 c 128
 148.376953125 624.5 113.043945312 532.5 113.043945312 413.5 c 128
 113.043945312 256.262695312 200.1796875 135.90234375 331.043945312 83 c 1
 534.043945312 783 l 1
EndSplineSet
EndChar

StartChar: sterling
Encoding: 373 163 117
Width: 1093
GlyphClass: 2
Flags: HW
LayerCount: 2
Fore
SplineSet
292 960.5 m 128
 292 1145.65917969 444.62890625 1255 639 1255 c 128
 838.3359375 1255 960 1159.02441406 960 968 c 1
 884 968 l 1
 884 1115.33300781 806 1189 650 1189 c 0
 469.333007812 1189 379 1110.66699219 379 954 c 0
 379 882 406.333007812 796.666992188 461 698 c 0
 476.333007812 670 492 641 508 611 c 1
 883 611 l 1
 883 562 l 1
 524 562 l 1
 554.666992188 475.333007812 570 399 570 333 c 128
 570 267 561.333007812 208 544 156 c 1
 602 81.3330078125 681 44 781 44 c 0
 904.333007812 44 966 116.666992188 966 262 c 1
 1016 262 l 1
 1018 246.666992188 1019 217.166992188 1019 173.5 c 128
 1019 129.833007812 999 85.1669921875 959 39.5 c 128
 919 -6.1669921875 854 -29 764 -29 c 128
 674 -29 595 16.3330078125 527 107 c 1
 483.666992188 4.3330078125 393.333007812 -47 256 -47 c 128
 118.666992188 -47 50 11 50 127 c 0
 50 250.27734375 160.706054688 300 294.5 300 c 128
 372.166992188 300 434.666992188 268 482 204 c 1
 488.666992188 236 492 280.166992188 492 336.5 c 128
 492 392.833007812 472.333007812 468 433 562 c 1
 185 562 l 1
 185 611 l 1
 408 611 l 1
 394.666992188 637 381 663.333007812 367 690 c 0
 317 785.333007812 292 875.5 292 960.5 c 128
282 244 m 0
 174 244 120 199 120 109 c 0
 120 79.6669921875 137.5 52.3330078125 172.5 27 c 128
 244.727539062 -25.279296875 349.3828125 18.7646484375 404.5 54.5 c 128
 434.833007812 74.1669921875 455.666992188 107.333007812 467 154 c 1
 418.333007812 214 356.666992188 244 282 244 c 0
EndSplineSet
EndChar

StartChar: currency
Encoding: 374 164 118
Width: 1072
GlyphClass: 2
Flags: HW
LayerCount: 2
Fore
SplineSet
743 647 m 1
 685.666992188 607 617.333007812 587 538 587 c 128
 458.666992188 587 388.333007812 606.666992188 327 646 c 1
 221 541 l 1
 139 623 l 1
 237 721 l 1
 177 793 147 875.833007812 147 969.5 c 128
 147 1063.16699219 176.333007812 1142.66699219 235 1208 c 1
 139 1306 l 1
 221 1388 l 1
 325 1285 l 1
 386.333007812 1324.33300781 456.166992188 1344 534.5 1344 c 128
 612.833007812 1344 683.333007812 1323.66699219 746 1283 c 1
 851 1388 l 1
 934 1306 l 1
 835 1206 l 1
 891 1134 919 1053.66699219 919 965 c 256
 919 873.666992188 890 793.333007812 832 724 c 1
 934 623 l 1
 851 541 l 1
 743 647 l 1
532 1247 m 256
 374.043945312 1247 253 1144.50292969 253 965 c 256
 253 875 281.666992188 805 339 755 c 128
 396.333007812 705 452.666992188 680 508 680 c 0
 714 680 817 783.666992188 817 991 c 0
 817 1133.61914062 677.958984375 1247 532 1247 c 256
EndSplineSet
EndChar

StartChar: yen
Encoding: 375 165 119
Width: 1236
GlyphClass: 2
Flags: HW
LayerCount: 2
Fore
SplineSet
998 226 m 1
 662 226 l 1
 662 62 l 1
 822 62 l 1
 822 0 l 1
 419 0 l 1
 419 62 l 1
 580 62 l 1
 580 226 l 1
 249 226 l 1
 249 288 l 1
 580 288 l 1
 580 433 l 1
 249 433 l 1
 249 496 l 1
 544 496 l 1
 138 1171 l 1
 -20 1171 l 1
 -20 1234 l 1
 383 1234 l 1
 383 1171 l 1
 226 1171 l 1
 623 508 l 1
 1013 1171 l 1
 854 1171 l 1
 854 1234 l 1
 1257 1234 l 1
 1257 1171 l 1
 1101 1171 l 1
 698 496 l 1
 998 496 l 1
 998 433 l 1
 662 433 l 1
 662 288 l 1
 998 288 l 1
 998 226 l 1
EndSplineSet
EndChar

StartChar: brokenbar
Encoding: 376 166 120
Width: 411
GlyphClass: 2
Flags: HW
LayerCount: 2
Fore
SplineSet
173 1255 m 1
 241 1255 l 1
 241 715 l 1
 173 715 l 1
 173 1255 l 1
173 517 m 1
 241 517 l 1
 241 -23 l 1
 173 -23 l 1
 173 517 l 1
EndSplineSet
EndChar

StartChar: section
Encoding: 377 167 121
Width: 964
GlyphClass: 2
Flags: HW
LayerCount: 2
Fore
SplineSet
513 104 m 0
 630.884765625 104 750 150.76171875 750 258.5 c 0
 749.333007812 304.833007812 718.333007812 340 657 364 c 0
 622.333007812 377.333007812 556.333007812 391 459 405 c 128
 361.666992188 419 287 439.833007812 235 467.5 c 128
 183 495.166992188 157 545.333007812 157 618 c 128
 157 690.666992188 192 745.333007812 262 782 c 1
 192 818 157 872 157 944 c 0
 157 1041.33300781 219.666992188 1103.33300781 345 1130 c 0
 381 1138 417.333007812 1141.66699219 454 1141 c 0
 566 1141 650.666992188 1115.33300781 708 1064 c 1
 708 1124 l 1
 778 1124 l 1
 778 896 l 1
 708 896 l 1
 708 983 l 1
 658.666992188 1043.66699219 581.166992188 1074 475.5 1074 c 128
 369.833007812 1074 297.666992188 1050.66699219 259 1004 c 0
 245.666992188 988 239 966.666992188 239 940 c 0
 239 890.666992188 270 854.666992188 332 832 c 0
 362 820.666992188 427 808 527 794 c 128
 627 780 703.333007812 758.166992188 756 728.5 c 128
 808.666992188 698.833007812 834.666992188 647.166992188 834 573.5 c 128
 833.333007812 499.833007812 799 444.333007812 731 407 c 1
 795 370.333007812 827 317.333007812 827 248 c 0
 827 154.666992188 768.333007812 90.6669921875 651 56 c 0
 609.666992188 44 559 37.6669921875 499 37 c 0
 372.333007812 37 279.666992188 66.3330078125 221 125 c 1
 221 52 l 1
 153 52 l 1
 153 283 l 1
 221 283 l 1
 221 220 l 1
 258.333007812 142.666992188 355.666992188 104 513 104 c 0
675 439 m 1
 728.333007812 463 755 506.333007812 755 569 c 0
 755 639.666992188 701.666992188 686.666992188 595 710 c 0
 540.139648438 721.969726562 374.55078125 742.859375 325 758 c 1
 267.666992188 736 239 688 239 614 c 0
 239 464.887695312 533.693359375 470.994140625 675 439 c 1
EndSplineSet
EndChar

StartChar: dieresis
Encoding: 378 168 122
Width: 599
GlyphClass: 2
Flags: HW
LayerCount: 2
Fore
SplineSet
467 1046 m 1
 467 940 l 1
 367 940 l 1
 367 1046 l 1
 467 1046 l 1
225 1046 m 1
 225 940 l 1
 125 940 l 1
 125 1046 l 1
 225 1046 l 1
EndSplineSet
EndChar

StartChar: copyright
Encoding: 379 169 123
Width: 1458
GlyphClass: 2
Flags: HW
LayerCount: 2
Fore
SplineSet
1040 379 m 1
 949.333007812 287 849.166992188 241.333007812 739.5 242 c 128
 525.646484375 243.299804688 357 388.622070312 357 602 c 0
 357 770 429.333007812 883.333007812 574 942 c 0
 620 960.666992188 684.166992188 970.333007812 766.5 971 c 128
 848.833007812 971.666992188 908.333007812 946.333007812 945 895 c 1
 945 977 l 1
 1016 977 l 1
 1016 754 l 1
 955 754 l 1
 943.666992188 858 870.5 910 735.5 910 c 128
 600.5 910 508 851.666992188 458 735 c 0
 441.333007812 696.333007812 433 642.166992188 433 572.5 c 128
 433 502.833007812 462.333007812 441.166992188 521 387.5 c 0
 579.666992188 333.833007812 659.333007812 306.666992188 760 306 c 128
 860.666992188 305.333007812 946.666992188 352.666992188 1018 448 c 1
 1040 379 l 1
308.5 1024 m 128
 208.166992188 907.333007812 158 770 158 612 c 128
 158 454 207.5 318.166992188 306.5 204.5 c 128
 405.5 90.8330078125 544.833007812 34 724.5 34 c 128
 904.166992188 34 1044.83300781 91.8330078125 1146.5 207.5 c 128
 1248.16699219 323.166992188 1299 459.666992188 1299 617 c 256
 1299 771.666992188 1248.16699219 907.333007812 1146.5 1024 c 128
 1044.83300781 1140.66699219 904.833007812 1199 726.5 1199 c 128
 548.166992188 1199 408.833007812 1140.66699219 308.5 1024 c 128
728 -23 m 256
 458.666992188 -23 268.666992188 87.3330078125 158 308 c 0
 110 403.333007812 86 506 86 616 c 256
 86 787.333007812 142.333007812 937.166992188 255 1065.5 c 128
 367.666992188 1193.83300781 525.333007812 1258 728 1258 c 0
 997.333007812 1258 1187.33300781 1147 1298 925 c 0
 1346 829.666992188 1370 726.666992188 1370 616 c 256
 1370 444 1313.83300781 294.5 1201.5 167.5 c 128
 1089.16699219 40.5 931.333007812 -23 728 -23 c 256
EndSplineSet
EndChar

StartChar: ordfeminine
Encoding: 380 170 124
Width: 807
GlyphClass: 2
Flags: HW
LayerCount: 2
Fore
SplineSet
333 641 m 128
 201.578125 641 124 707.077148438 124 835 c 0
 124 942.333007812 200.333007812 996 353 996 c 0
 413.666992188 996 473.333007812 990 532 978 c 1
 532 1055 l 2
 532 1146.33300781 485 1192 391 1192 c 128
 297 1192 228 1169 184 1123 c 1
 148 1181 l 1
 198.666992188 1230.33300781 280.333007812 1255 393 1255 c 128
 526.379882812 1255 605 1193.47460938 605 1067 c 2
 605 710 l 1
 711 710 l 1
 711 650 l 1
 543 650 l 1
 534 708 l 1
 468.666992188 663.333007812 401.666992188 641 333 641 c 128
385.5 932 m 128
 271.026367188 932 198 916.805664062 198 817 c 0
 198 743 241.166992188 706 327.5 706 c 128
 413.833007812 706 482 728 532 772 c 1
 532 917 l 1
 492 927 443.166992188 932 385.5 932 c 128
EndSplineSet
EndChar

StartChar: guillemotleft
Encoding: 381 171 125
Width: 780
GlyphClass: 2
Flags: HW
LayerCount: 2
Fore
SplineSet
614 1043 m 1
 662 1043 l 1
 449 664 l 1
 662 281 l 1
 614 281 l 1
 341 664 l 1
 614 1043 l 1
346 1043 m 1
 394 1043 l 1
 182 664 l 1
 394 281 l 1
 346 281 l 1
 74 664 l 1
 346 1043 l 1
EndSplineSet
EndChar

StartChar: logicalnot
Encoding: 382 172 126
Width: 976
GlyphClass: 2
Flags: HW
LayerCount: 2
Fore
SplineSet
827 697 m 1
 827 304 l 1
 750 304 l 1
 750 617 l 1
 89 617 l 1
 89 697 l 1
 827 697 l 1
EndSplineSet
EndChar

StartChar: registered
Encoding: 384 174 128
Width: 1458
GlyphClass: 2
Flags: HW
LayerCount: 2
Fore
SplineSet
998 791 m 128
 998 676.849609375 914.508789062 597.337890625 802 590 c 1
 970 316 l 1
 1072 316 l 1
 1072 258 l 1
 921 258 l 1
 724 590 l 1
 566 590 l 1
 566 316 l 1
 662 316 l 1
 662 258 l 1
 411 258 l 1
 411 316 l 1
 497 316 l 1
 497 931 l 1
 404 931 l 1
 404 988 l 1
 782 988 l 2
 905.344726562 988 998 907.534179688 998 791 c 128
782 648 m 2
 875.086914062 648 933 700.859375 933 803.5 c 128
 933 831.833007812 919.5 860.166992188 892.5 888.5 c 128
 865.5 916.833007812 828.666992188 931 782 931 c 2
 566 931 l 1
 566 648 l 1
 782 648 l 2
308.5 1024 m 128
 208.166992188 907.333007812 158 770 158 612 c 128
 158 454 207.5 318.166992188 306.5 204.5 c 128
 405.5 90.8330078125 544.833007812 34 724.5 34 c 128
 904.166992188 34 1044.83300781 91.8330078125 1146.5 207.5 c 128
 1248.16699219 323.166992188 1299 459.666992188 1299 617 c 256
 1299 771.666992188 1248.16699219 907.333007812 1146.5 1024 c 128
 1044.83300781 1140.66699219 904.833007812 1199 726.5 1199 c 128
 548.166992188 1199 408.833007812 1140.66699219 308.5 1024 c 128
728 -23 m 256
 458.666992188 -23 268.666992188 87.3330078125 158 308 c 0
 110 403.333007812 86 506 86 616 c 256
 86 787.333007812 142.333007812 937.166992188 255 1065.5 c 128
 367.666992188 1193.83300781 525.333007812 1258 728 1258 c 0
 997.333007812 1258 1187.33300781 1147 1298 925 c 0
 1346 829.666992188 1370 726.666992188 1370 616 c 256
 1370 444 1313.83300781 294.5 1201.5 167.5 c 128
 1089.16699219 40.5 931.333007812 -23 728 -23 c 256
EndSplineSet
EndChar

StartChar: macron
Encoding: 385 175 129
Width: 655
GlyphClass: 2
Flags: HW
LayerCount: 2
Fore
SplineSet
128 1123 m 1
 519 1123 l 1
 519 1058 l 1
 128 1058 l 1
 128 1123 l 1
EndSplineSet
EndChar

StartChar: degree
Encoding: 386 176 130
Width: 836
GlyphClass: 2
Flags: HW
LayerCount: 2
Fore
SplineSet
614 1052 m 257
 614 1163.77050781 542.0390625 1239 418 1239 c 256
 303.0234375 1239.8515625 224.7734375 1174.02441406 222 1052 c 257
 222 940.229492188 293.9609375 865 418 865 c 256
 532.9765625 864.1484375 611.2265625 929.975585938 614 1052 c 257
418 768 m 256
 336.666992188 768 274.333007812 786 231 822 c 0
 151 887.333007812 111 964 111 1052 c 256
 111 1140.66699219 141.833007812 1210.16699219 203.5 1260.5 c 128
 265.166992188 1310.83300781 336.666992188 1336 418 1336 c 256
 499.333007812 1336 561.666992188 1318 605 1282 c 0
 685 1216.66699219 725 1140 725 1052 c 256
 725 963.333007812 694.166992188 893.833007812 632.5 843.5 c 128
 570.833007812 793.166992188 499.333007812 768 418 768 c 256
EndSplineSet
EndChar

StartChar: plusminus
Encoding: 387 177 131
Width: 891
GlyphClass: 2
Flags: HW
LayerCount: 2
Fore
SplineSet
834 0 m 1
 60 0 l 1
 60 62 l 1
 834 62 l 1
 834 0 l 1
480 598 m 1
 836 598 l 1
 836 534 l 1
 480 534 l 1
 480 138 l 1
 418 138 l 1
 418 534 l 1
 62 534 l 1
 62 598 l 1
 418 598 l 1
 418 982 l 1
 480 982 l 1
 480 598 l 1
EndSplineSet
EndChar

StartChar: twosuperior
Encoding: 388 178 132
Width: 811
GlyphClass: 2
Flags: HW
LayerCount: 2
Fore
SplineSet
152 656.5 m 128
 152 771.2734375 276.157226562 881 391 881 c 0
 584.333007812 881 681 797.666992188 681 631 c 0
 681 525.666992188 567.333007812 370 340 164 c 0
 294.666992188 122.666992188 262 92 242 72 c 1
 640 72 l 1
 640 0 l 1
 134 0 l 1
 134 70 l 1
 146 82 166 100.333007812 194 125 c 0
 466.666992188 365 603 535 603 635 c 0
 603 753 541.666992188 812 419 812 c 0
 310.751953125 812 225 747.975585938 225 631 c 128
 225 607 229.333007812 575 238 535 c 1
 160 535 l 1
 154.666992188 558.333007812 152 598.833007812 152 656.5 c 128
EndSplineSet
EndChar

StartChar: threesuperior
Encoding: 389 179 133
Width: 813
GlyphClass: 2
Flags: HW
LayerCount: 2
Fore
SplineSet
590 651.5 m 128
 590 754.403320312 487.4609375 812 383 812 c 0
 283 812 214 775.333007812 176 702 c 1
 110 732 l 1
 161.333007812 832 253 882 385 882 c 0
 457.666992188 882 514.666992188 867 556 837 c 0
 630.666992188 783 668 716.333007812 668 637 c 128
 668 557.666992188 625 500 539 464 c 1
 635 428.666992188 683 357.333007812 683 250 c 0
 683 89.6064453125 537.216796875 -13.1259765625 372.5 -12.5 c 0
 254.44921875 -12.05078125 139.870117188 60.228515625 93 161 c 1
 153 200 l 1
 200.333007812 102 275 52.8330078125 377 52.5 c 0
 505.301757812 52.0810546875 607 119.0859375 607 258 c 0
 607 395.721679688 484.301757812 424 321 424 c 2
 285 424 l 1
 285 498 l 1
 319 498 l 2
 433.666992188 498 507.5 511.166992188 540.5 537.5 c 128
 573.5 563.833007812 590 601.833007812 590 651.5 c 128
EndSplineSet
EndChar

StartChar: acute
Encoding: 390 180 134
Width: 407
GlyphClass: 2
Flags: HW
LayerCount: 2
Fore
SplineSet
123 985 m 1
 182 1234 l 1
 308 1234 l 1
 154 985 l 1
 123 985 l 1
EndSplineSet
EndChar

StartChar: mu
Encoding: 391 181 135
AltUni2: 0003bc.ffffffff.0
Width: 1192
GlyphClass: 2
Flags: HW
LayerCount: 2
Fore
SplineSet
526 53 m 0
 616 53 724.333007812 93 851 173 c 1
 851 776 l 1
 677 776 l 1
 677 836 l 1
 930 836 l 1
 930 58 l 1
 1103 58 l 1
 1103 0 l 1
 863 0 l 1
 855 104 l 1
 752.333007812 42.6669921875 678.5 7.6669921875 633.5 -1 c 128
 588.5 -9.6669921875 538.833007812 -14 484.5 -14 c 128
 430.166992188 -14 380.666992188 4 336 40 c 1
 336 -232 l 1
 256 -232 l 1
 256 776 l 1
 81 776 l 1
 81 836 l 1
 335 836 l 1
 336 208 l 1
 342 104.666992188 405.333007812 53 526 53 c 0
EndSplineSet
EndChar

StartChar: paragraph
Encoding: 392 182 136
Width: 1025
GlyphClass: 2
Flags: HW
LayerCount: 2
Fore
SplineSet
712 661 m 1
 516 661 l 1
 516 -23 l 1
 435 -23 l 1
 435 661 l 1
 399 661 l 2
 293 661 210 690.333007812 150 749 c 128
 90 807.666992188 60 875.333007812 60 952 c 128
 60 1028.66699219 90 1094.83300781 150 1150.5 c 128
 210 1206.16699219 293 1234 399 1234 c 2
 959 1234 l 1
 959 1171 l 1
 793 1171 l 1
 793 -23 l 1
 712 -23 l 1
 712 661 l 1
EndSplineSet
EndChar

StartChar: periodcentered
Encoding: 393 183 137
Width: 365
GlyphClass: 2
Flags: HW
LayerCount: 2
Fore
SplineSet
240 815 m 1
 240 695 l 1
 123 695 l 1
 123 815 l 1
 240 815 l 1
EndSplineSet
EndChar

StartChar: cedilla
Encoding: 394 184 138
Width: 421
GlyphClass: 2
Flags: HW
LayerCount: 2
Fore
SplineSet
333 -188 m 0
 333 -246.666992188 288 -276 198 -276 c 0
 165.333007812 -276 131.666992188 -269.333007812 97 -256 c 1
 97 -210 l 1
 128.333007812 -219.333007812 158.166992188 -224 186.5 -224 c 128
 214.833007812 -224 229 -212.166992188 229 -188.5 c 128
 229 -164.833007812 195.333007812 -150 128 -144 c 1
 186 6 l 1
 236 6 l 1
 197 -108 l 1
 209 -108 l 2
 249.666992188 -108 280.5 -117.333007812 301.5 -136 c 128
 322.5 -154.666992188 333 -172 333 -188 c 0
EndSplineSet
EndChar

StartChar: onesuperior
Encoding: 395 185 139
Width: 551
GlyphClass: 2
Flags: HW
LayerCount: 2
Fore
SplineSet
439 61 m 1
 439 0 l 1
 127 0 l 1
 127 61 l 1
 248 61 l 1
 248 787 l 1
 144 767 l 1
 127 832 l 1
 322 869 l 1
 322 61 l 1
 439 61 l 1
EndSplineSet
EndChar

StartChar: ordmasculine
Encoding: 396 186 140
Width: 875
GlyphClass: 2
Flags: HW
LayerCount: 2
Fore
SplineSet
435 706 m 256
 585.581054688 706 682.515625 801.264648438 681.5 976 c 128
 680.803710938 1095.77734375 558.654296875 1192 435 1192 c 256
 329 1192 254.666992188 1146.33300781 212 1055 c 0
 198 1025 191 981 191 923 c 128
 191 802.065429688 310.99609375 706 435 706 c 256
660 723.5 m 128
 596.666992188 668.5 521.666992188 641 435 641 c 256
 349 641.666992188 283.666992188 661.333007812 239 700 c 0
 157.666992188 770 117 853.166992188 117 949.5 c 128
 117 1045.83300781 148.5 1120.83300781 211.5 1174.5 c 128
 274.5 1228.16699219 349 1255 435 1255 c 256
 522.333007812 1255.66699219 588.333007812 1236.66699219 633 1198 c 0
 714.333007812 1128 755 1045.16699219 755 949.5 c 128
 755 853.833007812 723.333007812 778.5 660 723.5 c 128
EndSplineSet
EndChar

StartChar: guillemotright
Encoding: 397 187 141
Width: 778
GlyphClass: 2
Flags: HW
LayerCount: 2
Fore
SplineSet
437 664 m 1
 165 281 l 1
 117 281 l 1
 329 664 l 1
 117 1043 l 1
 165 1043 l 1
 437 664 l 1
705 664 m 1
 432 281 l 1
 384 281 l 1
 597 664 l 1
 384 1043 l 1
 432 1043 l 1
 705 664 l 1
EndSplineSet
EndChar

StartChar: onequarter
Encoding: 398 188 142
Width: 1326
GlyphClass: 2
Flags: HW
LayerCount: 2
Fore
SplineSet
397 426 m 1
 397 365 l 1
 85 365 l 1
 85 426 l 1
 206 426 l 1
 206 1152 l 1
 102 1132 l 1
 85 1197 l 1
 280 1234 l 1
 280 426 l 1
 397 426 l 1
716 316 m 1
 1054 866 l 1
 1146 866 l 1
 1146 323 l 1
 1324 323 l 1
 1324 260 l 1
 1146 260 l 1
 1146 61 l 1
 1258 61 l 1
 1258 0 l 1
 961 0 l 1
 961 61 l 1
 1073 61 l 1
 1073 260 l 1
 725 260 l 1
 716 316 l 1
1073 323 m 1
 1073 768 l 1
 981.645507812 614.846679688 896.013671875 477.5 806 323 c 1
 1073 323 l 1
EndSplineSet
Refer: 295 8260 N 1 0 0 1 365 0 2
EndChar

StartChar: onehalf
Encoding: 399 189 143
Width: 1323
GlyphClass: 2
Flags: HW
LayerCount: 2
Fore
SplineSet
400 426 m 1
 400 365 l 1
 88 365 l 1
 88 426 l 1
 209 426 l 1
 209 1152 l 1
 105 1132 l 1
 88 1197 l 1
 283 1234 l 1
 283 426 l 1
 400 426 l 1
1014 881 m 0
 1171.75 881 1275 789.725585938 1275 631 c 0
 1275 525.666992188 1161.33300781 370 934 164 c 0
 888.666992188 122.666992188 856 92 836 72 c 1
 1234 72 l 1
 1234 0 l 1
 728 0 l 1
 728 70 l 1
 740 82 760 100.333007812 788 125 c 0
 1060.66699219 365.666992188 1197 537.333007812 1197 640 c 0
 1197 754.666992188 1128 812 990 812 c 0
 916.666992188 812 864.666992188 775.333007812 834 702 c 0
 817.48828125 660.720703125 816.821289062 605.053710938 832 535 c 1
 754 535 l 1
 748.666992188 558.333007812 746 599 746 657 c 0
 746 715 771 766.833007812 821 812.5 c 0
 871 858.166992188 935.333007812 881 1014 881 c 0
EndSplineSet
Refer: 295 8260 N 1 0 0 1 329 0 2
EndChar

StartChar: threequarters
Encoding: 400 190 144
Width: 1523
GlyphClass: 2
Flags: HW
LayerCount: 2
Fore
SplineSet
538 1001 m 0
 538 1117.83984375 444.666015625 1177 331 1177 c 0
 231 1177 162 1140.33300781 124 1067 c 1
 58 1097 l 1
 109.333007812 1197 201 1247 333 1247 c 0
 405.666992188 1247 471 1226 529 1184 c 0
 587 1142 616 1081.33300781 616 1002 c 0
 616 922.666992188 573 865 487 829 c 1
 583 793.666992188 631 715.666992188 631 595 c 0
 631 532.333007812 601.333007812 476.166992188 542 426.5 c 0
 482.666992188 376.833007812 409 352 321 352 c 0
 202.14453125 352 87.27734375 424.190429688 41 526 c 1
 101 565 l 1
 148.333007812 467 227.666992188 418 339 418 c 0
 446.7109375 418 555 499.206054688 555 603 c 0
 555 700.900390625 520.453125 738.396484375 452.5 768 c 0
 418.833007812 782.666992188 357.666992188 789.666992188 269 789 c 2
 233 789 l 1
 233 863 l 1
 267 863 l 2
 350.333007812 862.333007812 405.333007812 866.666992188 432 876 c 0
 502.666992188 899.333007812 538 941 538 1001 c 0
911 316 m 1
 1249 866 l 1
 1341 866 l 1
 1341 323 l 1
 1519 323 l 1
 1519 260 l 1
 1341 260 l 1
 1341 61 l 1
 1453 61 l 1
 1453 0 l 1
 1156 0 l 1
 1156 61 l 1
 1268 61 l 1
 1268 260 l 1
 920 260 l 1
 911 316 l 1
1268 323 m 1
 1268 768 l 1
 1176.64550781 614.846679688 1091.01367188 477.5 1001 323 c 1
 1268 323 l 1
EndSplineSet
Refer: 295 8260 N 1 0 0 1 584 0 2
EndChar

StartChar: questiondown
Encoding: 401 191 145
Width: 694
GlyphClass: 2
Flags: HW
LayerCount: 2
Fore
SplineSet
380 49 m 0
 502 49 583.333007812 98 624 196 c 1
 685 160 l 1
 634.333007812 38 536 -23.1669921875 390 -23.5 c 0
 199.771484375 -23.9345703125 63 84.3154296875 63 294 c 128
 63 351.333007812 75.3330078125 398 100 434 c 128
 124.666992188 470 163.166992188 510.666992188 215.5 556 c 128
 267.833007812 601.333007812 308.833007812 649 338.5 699 c 128
 368.166992188 749 386 819.666992188 392 911 c 1
 425 911 l 1
 424.333007812 741 376.666992188 612.666992188 282 526 c 0
 220 469.333007812 180.833007812 424.5 164.5 391.5 c 128
 148.166992188 358.5 140 315.333007812 140 262 c 128
 140 208.666992188 160.833007812 159.833007812 202.5 115.5 c 128
 244.166992188 71.1669921875 303.333007812 49 380 49 c 0
356 1223 m 1
 440 1223 l 1
 440 1144 l 1
 356 1144 l 1
 356 1223 l 1
EndSplineSet
EndChar

StartChar: AE
Encoding: 408 198 152
Width: 1940
GlyphClass: 2
Flags: HW
LayerCount: 2
Fore
SplineSet
887 1164 m 1
 981 666 l 1
 1413 666 l 1
 1383 824 l 1
 1450 824 l 1
 1524 424 l 1
 1457 424 l 1
 1426 596 l 1
 994 596 l 1
 1092 70 l 1
 1775 70 l 1
 1719 376 l 1
 1796 376 l 1
 1865 0 l 1
 837 0 l 1
 849 62 l 1
 1007 62 l 1
 930 503 l 1
 455 503 l 1
 213 62 l 1
 371 62 l 1
 359 0 l 1
 -43 0 l 1
 -31 62 l 1
 126 62 l 1
 750 1171 l 1
 592 1171 l 1
 604 1234 l 1
 1614 1234 l 1
 1684 858 l 1
 1607 858 l 1
 1551 1164 l 1
 887 1164 l 1
488 564 m 1
 918 564 l 1
 814 1153 l 1
 488 564 l 1
EndSplineSet
EndChar

StartChar: Eth
Encoding: 418 208 162
Width: 1435
GlyphClass: 2
Flags: HW
LayerCount: 2
Fore
SplineSet
817 1234 m 2
 1045.66699219 1234 1207.33300781 1126.66699219 1302 912 c 0
 1342 820.666992188 1362 729 1362 637 c 0
 1362 455 1314 303.333007812 1218 182 c 128
 1122 60.6669921875 988.333007812 0 817 0 c 2
 124 0 l 1
 124 62 l 1
 290 62 l 1
 290 597 l 1
 135 597 l 1
 135 662 l 1
 290 662 l 1
 290 1171 l 1
 124 1171 l 1
 124 1234 l 1
 817 1234 l 2
372 662 m 1
 526 662 l 1
 526 597 l 1
 372 597 l 1
 372 62 l 1
 816 62 l 2
 962.666992188 62 1076.33300781 116.666992188 1157 226 c 128
 1237.66699219 335.333007812 1278 465.333007812 1278 616 c 0
 1278 828 1209.66699219 985.333007812 1073 1088 c 0
 1000.33300781 1142.66699219 914.666992188 1170.33300781 816 1171 c 2
 372 1171 l 1
 372 662 l 1
EndSplineSet
EndChar

StartChar: multiply
Encoding: 425 215 169
Width: 631
GlyphClass: 2
Flags: HW
LayerCount: 2
Fore
SplineSet
117 812 m 1
 320 610 l 1
 524 814 l 1
 568 769 l 1
 366 565 l 1
 568 361 l 1
 524 317 l 1
 320 521 l 1
 117 318 l 1
 73 362 l 1
 276 565 l 1
 73 768 l 1
 117 812 l 1
EndSplineSet
EndChar

StartChar: Oslash
Encoding: 426 216 170
Width: 1442
GlyphClass: 2
Flags: HW
LayerCount: 2
Fore
SplineSet
1159 1095 m 1
 1293.66699219 971 1361 816.5 1361 631.5 c 128
 1361 446.5 1304.83300781 291.166992188 1192.5 165.5 c 128
 1080.16699219 39.8330078125 923 -23 721 -23 c 0
 584.333007812 -23 465.333007812 8.6669921875 364 72 c 1
 275 -42 l 1
 227 -8 l 1
 316 105 l 1
 159.333007812 227 81 396.333007812 81 613 c 0
 81 785 137.166992188 935 249.5 1063 c 128
 361.833007812 1191 519 1255 721 1255 c 0
 877 1255 1009 1213.66699219 1117 1131 c 1
 1203 1242 l 1
 1249 1210 l 1
 1159 1095 l 1
1068 1069 m 1
 970.666992188 1144.33300781 855 1182 721 1182 c 0
 487.666992188 1182 323 1083.33300781 227 886 c 0
 185.666992188 801.333007812 165 724 165 654 c 0
 165 432.666992188 230.666992188 269.666992188 362 165 c 1
 1068 1069 l 1
410 131 m 1
 498 75.6669921875 587 48 677 48 c 0
 937 48 1115.33300781 144.333007812 1212 337 c 0
 1255.33300781 423.666992188 1277 510.666992188 1277 598 c 0
 1277 776.666992188 1221.33300781 921 1110 1031 c 1
 410 131 l 1
EndSplineSet
EndChar

StartChar: Thorn
Encoding: 432 222 176
Width: 1127
GlyphClass: 2
Flags: HW
LayerCount: 2
Fore
SplineSet
337 1042 m 1
 735 1042 l 2
 843.666992188 1042 927.166992188 1012.5 985.5 953.5 c 128
 1043.83300781 894.5 1073 823.166992188 1073 739.5 c 128
 1073 655.833007812 1042.66699219 581.833007812 982 517.5 c 128
 921.333007812 453.166992188 839 421 735 421 c 2
 337 421 l 1
 337 62 l 1
 507 62 l 1
 507 0 l 1
 103 0 l 1
 103 62 l 1
 256 62 l 1
 256 1171 l 1
 105 1171 l 1
 105 1234 l 1
 492 1234 l 1
 492 1171 l 1
 337 1171 l 1
 337 1042 l 1
735 486 m 2
 894.59765625 486 994 586.137695312 994 767 c 128
 994 815.666992188 971.5 863.166992188 926.5 909.5 c 128
 881.5 955.833007812 817.666992188 979 735 979 c 2
 337 979 l 1
 337 486 l 1
 735 486 l 2
EndSplineSet
EndChar

StartChar: germandbls
Encoding: 433 223 177
Width: 1081
GlyphClass: 2
Flags: HW
LayerCount: 2
Fore
SplineSet
694 676 m 1
 890.577148438 668.58203125 1048 533.221679688 1048 337 c 0
 1048 179 959 75.3330078125 781 26 c 0
 719.666992188 8.6669921875 646.666992188 0 562 0 c 1
 562 62 l 1
 833.333007812 62 969 153.666992188 969 337 c 0
 969 475 898 568 756 616 c 0
 705.333007812 633.333007812 643.333007812 641.666992188 570 641 c 1
 570 685 l 1
 653.333007812 689 718.166992188 717.666992188 764.5 771 c 128
 810.833007812 824.333007812 834 883.833007812 834 949.5 c 128
 834 1100.296875 717.70703125 1180 554 1180 c 128
 350.265625 1180 295 1072.57128906 295 856 c 2
 295 62 l 1
 411 62 l 1
 411 0 l 1
 61 0 l 1
 61 62 l 1
 214 62 l 1
 214 851 l 2
 214 1120.33300781 330.333007812 1255 563 1255 c 0
 764.553710938 1255 913.19921875 1131.83691406 912.5 936 c 0
 912.032226562 805.061523438 825.352539062 702.270507812 694 676 c 1
EndSplineSet
EndChar

StartChar: ae
Encoding: 440 230 184
Width: 1500
GlyphClass: 2
Flags: HW
LayerCount: 2
Fore
SplineSet
753 400 m 1
 753 164.446289062 854.211914062 52 1078 52 c 1
 1208 49.3330078125 1319.33300781 100 1412 204 c 1
 1445 149 l 1
 1333.66699219 40.3330078125 1210.16699219 -14 1074.5 -14 c 128
 938.833007812 -14 833.333007812 29.3330078125 758 116 c 1
 663.333007812 29.3330078125 539 -14 385 -14 c 0
 179.666992188 -14 77 73.3330078125 77 248 c 0
 77 398.666992188 185 474.333007812 401 475 c 0
 487 475 579 465.333007812 677 446 c 1
 671 575 l 1
 671 716.333007812 591.666992188 787 433 787 c 0
 306.333007812 787 213 756.666992188 153 696 c 1
 117 755 l 1
 185.666992188 821 298.666992188 854 456 854 c 128
 613.333007812 854 708.333007812 783 741 641 c 1
 816.333007812 783 934 854 1094 854 c 0
 1321.14941406 854 1444 635.018554688 1444 400 c 1
 753 400 l 1
1366 466 m 1
 1354.66699219 608.666992188 1301 706.666992188 1205 760 c 0
 1173 778 1133 787 1085 787 c 0
 989.666992188 787 912 755 852 691 c 128
 792 627 759.666992188 552 755 466 c 1
 1366 466 l 1
426.5 410 m 128
 264.26171875 410 158 377.772460938 158 232 c 0
 158 112.666992188 238.666992188 53 400 53 c 0
 555.012695312 53 625.479492188 82.884765625 728 164 c 1
 694 232 677 305.333007812 677 384 c 1
 585.666992188 401.333007812 502.166992188 410 426.5 410 c 128
EndSplineSet
EndChar

StartChar: eth
Encoding: 450 240 194
Width: 920
GlyphClass: 2
Flags: HW
LayerCount: 2
Fore
SplineSet
449 49 m 128
 640.338867188 49 760 169.690429688 760 356.5 c 128
 760 446.833007812 728.833007812 519.666992188 666.5 575 c 128
 604.166992188 630.333007812 530.333007812 658 445 658 c 0
 256.7578125 658 133 543.735351562 133 329.5 c 128
 133 262.5 160.833007812 199 216.5 139 c 128
 272.166992188 79 349.666992188 49 449 49 c 128
463 1143 m 1
 792 1230 l 1
 816 1175 l 1
 491 1091 l 1
 703 697 l 1
 792.333007812 547 837 437 837 367 c 0
 837 245.666992188 797.666992188 150.333007812 719 81 c 128
 640.333007812 11.6669921875 559.333007812 -23 476 -23 c 0
 334 -23 227.666992188 15.6669921875 157 93 c 128
 86.3330078125 170.333007812 51 260.5 51 363.5 c 128
 51 466.5 88.8330078125 552.666992188 164.5 622 c 128
 240.166992188 691.333007812 320.333007812 726 405 726 c 128
 489.666992188 726 564.666992188 710 630 678 c 1
 413 1071 l 1
 92 988 l 1
 73 1040 l 1
 384 1122 l 1
 278 1314 l 1
 345 1361 l 1
 463 1143 l 1
EndSplineSet
EndChar

StartChar: divide
Encoding: 457 247 201
Width: 506
GlyphClass: 2
Flags: HW
LayerCount: 2
Fore
SplineSet
516 413 m 1
 -13 413 l 1
 -13 475 l 1
 516 475 l 1
 516 413 l 1
311 276 m 1
 311 156 l 1
 195 156 l 1
 195 276 l 1
 311 276 l 1
311 725 m 1
 311 605 l 1
 195 605 l 1
 195 725 l 1
 311 725 l 1
EndSplineSet
EndChar

StartChar: oslash
Encoding: 458 248 202
Width: 1003
GlyphClass: 2
Flags: HW
LayerCount: 2
Fore
SplineSet
302 29 m 1
 161.268554688 92.8779296875 57.8798828125 221.856445312 56 423 c 1
 56 558.333007812 100.333007812 664 189 740 c 128
 277.666992188 816 383 854 505 854 c 0
 574.333007812 854 640.333007812 841 703 815 c 1
 818 1039 l 1
 859 1015 l 1
 746 794 l 1
 887.333007812 716 958 600.5 958 447.5 c 128
 958 294.5 913 179.333007812 823 102 c 128
 733 24.6669921875 627 -14 505 -14 c 0
 451 -14 398 -5.3330078125 346 12 c 1
 239 -196 l 1
 199 -172 l 1
 302 29 l 1
713 730 m 1
 377 74 l 1
 465 44.6669921875 542.333007812 41.6669921875 609 65 c 128
 675.666992188 88.3330078125 726.333007812 115.333007812 761 146 c 0
 838.333007812 214.666992188 877.166992188 312.333007812 877.5 439 c 128
 877.833007812 565.666992188 823 662.666992188 713 730 c 1
671 752 m 1
 618.333007812 775.333007812 566 787 514 787 c 0
 409.333007812 787 320.5 754.666992188 247.5 690 c 128
 174.5 625.333007812 138 536.666992188 138 424 c 0
 138 266 203.333007812 155.333007812 334 92 c 1
 671 752 l 1
EndSplineSet
EndChar

StartChar: thorn
Encoding: 464 254 208
Width: 1081
GlyphClass: 2
Flags: HW
LayerCount: 2
Fore
SplineSet
252 1234 m 1
 252 695 l 1
 342 801 458.166992188 854 600.5 854 c 128
 742.833007812 854 853.333007812 812.166992188 932 728.5 c 128
 1010.66699219 644.833007812 1050 546.666992188 1050 434 c 0
 1050 268.666992188 985.666992188 141 857 51 c 0
 789 3 715.666992188 -21 637 -21 c 0
 558.333007812 -21 481.666992188 -4.6669921875 407 28 c 0
 332.333007812 60.6669921875 280.666992188 93 252 125 c 1
 249 -360 l 1
 8 -360 l 1
 8 -300 l 1
 173 -300 l 1
 173 1174 l 1
 24 1174 l 1
 24 1234 l 1
 252 1234 l 1
971 388 m 0
 971 636.7109375 840.767578125 787 596 787 c 128
 476.666992188 787 362 731 252 619 c 1
 252 193 l 1
 372 99.6669921875 490.833007812 53 608.5 53 c 128
 726.166992188 53 816 90.3330078125 878 165 c 128
 940 239.666992188 971 314 971 388 c 0
EndSplineSet
EndChar

StartChar: hbar
Encoding: 466 295 210
Width: 1201
GlyphClass: 2
Flags: HW
LayerCount: 2
Fore
SplineSet
94 1176 m 1
 94 1234 l 1
 346 1234 l 1
 346 1012 l 1
 578 1012 l 1
 578 949 l 1
 346 949 l 1
 346 736 l 1
 458 798 536.833007812 833.166992188 582.5 841.5 c 128
 628.166992188 849.833007812 669.666992188 854 707 854 c 0
 796.333007812 854 862.166992188 830.5 904.5 783.5 c 128
 946.833007812 736.5 968 681 968 617 c 2
 968 60 l 1
 1143 60 l 1
 1143 0 l 1
 731 0 l 1
 731 60 l 1
 889 60 l 1
 889 601 l 2
 889 725 824.333007812 787 695 787 c 0
 611 787 521.666992188 761 427 709 c 0
 400.333007812 694.333007812 373.333007812 679.333007812 346 664 c 1
 346 60 l 1
 538 60 l 1
 538 0 l 1
 105 0 l 1
 105 60 l 1
 267 60 l 1
 267 949 l 1
 93 949 l 1
 93 1012 l 1
 267 1012 l 1
 267 1176 l 1
 94 1176 l 1
EndSplineSet
EndChar

StartChar: dotlessi
Encoding: 469 305 213
Width: 567
GlyphClass: 2
Flags: HW
LayerCount: 2
Fore
SplineSet
105 776 m 1
 105 836 l 1
 334 836 l 1
 334 60 l 1
 488 60 l 1
 488 0 l 1
 105 0 l 1
 105 60 l 1
 255 60 l 1
 255 776 l 1
 105 776 l 1
EndSplineSet
EndChar

StartChar: IJ
Encoding: 470 306 214
Width: 1076
GlyphClass: 2
Flags: HW
LayerCount: 2
Fore
SplineSet
718 -41 m 2
 783.189453125 -41 792 -0.771484375 792 59 c 2
 792 1174 l 1
 653 1174 l 1
 653 1234 l 1
 1013 1234 l 1
 1013 1174 l 1
 874 1174 l 1
 874 60 l 2
 874.666992188 -40.6669921875 837 -93.6669921875 761 -99 c 0
 741 -100.333007812 722.333007812 -101 705 -101 c 2
 634 -101 l 1
 634 -41 l 1
 718 -41 l 2
504 1234 m 1
 504 1171 l 1
 344 1171 l 1
 344 62 l 1
 504 62 l 1
 504 0 l 1
 101 0 l 1
 101 62 l 1
 262 62 l 1
 262 1171 l 1
 101 1171 l 1
 101 1234 l 1
 504 1234 l 1
EndSplineSet
EndChar

StartChar: ij
Encoding: 471 307 215
Width: 992
GlyphClass: 2
Flags: HW
LayerCount: 2
Fore
SplineSet
743 779 m 1
 606 779 l 1
 606 836 l 1
 822 836 l 1
 822 -22 l 2
 822.666992188 -104 815 -158.666992188 799 -186 c 0
 766.333007812 -242.666992188 702.666992188 -271 608 -271 c 2
 528 -271 l 1
 528 -211 l 1
 606 -211 l 2
 668.666992188 -211 707.166992188 -198.666992188 721.5 -174 c 0
 735.833007812 -149.333007812 743 -102.666992188 743 -34 c 2
 743 779 l 1
786.5 1092 m 128
 750.456054688 1092 725 1115.52539062 725 1148 c 0
 725 1186 745.666992188 1205 787 1205 c 256
 828.333007812 1205 849 1186 849 1148 c 0
 849 1115.60839844 822.421875 1092 786.5 1092 c 128
299.5 1092 m 128
 263.456054688 1092 238 1115.52539062 238 1148 c 0
 238 1186 258.666992188 1205 300 1205 c 256
 336.875 1205 363 1182.45605469 363 1149 c 128
 363 1115.80761719 335.897460938 1092 299.5 1092 c 128
114 776 m 1
 114 836 l 1
 343 836 l 1
 343 60 l 1
 497 60 l 1
 497 0 l 1
 114 0 l 1
 114 60 l 1
 264 60 l 1
 264 776 l 1
 114 776 l 1
EndSplineSet
EndChar

StartChar: kgreenlandic
Encoding: 475 312 219
Width: 1135
GlyphClass: 2
Flags: HW
LayerCount: 2
Fore
SplineSet
99 778 m 1
 99 838 l 1
 364 838 l 1
 364 445 l 1
 758 776 l 1
 634 776 l 1
 634 836 l 1
 1019 836 l 1
 1019 776 l 1
 860 776 l 1
 457 439 l 1
 903 60 l 1
 1054 60 l 1
 1054 0 l 1
 671 0 l 1
 671 60 l 1
 794 60 l 1
 364 422 l 1
 364 60 l 1
 548 60 l 1
 548 0 l 1
 99 0 l 1
 99 60 l 1
 285 60 l 1
 285 778 l 1
 99 778 l 1
EndSplineSet
EndChar

StartChar: Lslash
Encoding: 478 321 222
Width: 1166
GlyphClass: 2
Flags: HW
LayerCount: 2
Fore
SplineSet
492 1234 m 1
 492 1174 l 1
 353 1174 l 1
 353 764 l 1
 561 887 l 1
 561 807 l 1
 353 684 l 1
 353 70 l 1
 981 70 l 1
 981 412 l 1
 1057 412 l 1
 1057 0 l 1
 132 0 l 1
 132 70 l 1
 271 70 l 1
 271 635 l 1
 139 557 l 1
 139 637 l 1
 271 715 l 1
 271 1174 l 1
 132 1174 l 1
 132 1234 l 1
 492 1234 l 1
EndSplineSet
EndChar

StartChar: lslash
Encoding: 479 322 223
Width: 681
GlyphClass: 2
Flags: HW
LayerCount: 2
Fore
SplineSet
562 887 m 1
 562 807 l 1
 391 706 l 1
 391 60 l 1
 575 60 l 1
 575 0 l 1
 126 0 l 1
 126 60 l 1
 312 60 l 1
 312 659 l 1
 140 557 l 1
 140 637 l 1
 312 739 l 1
 312 1174 l 1
 126 1174 l 1
 126 1234 l 1
 391 1234 l 1
 391 786 l 1
 562 887 l 1
EndSplineSet
EndChar

StartChar: OE
Encoding: 482 338 226
Width: 1937
GlyphClass: 2
Flags: HW
LayerCount: 2
Fore
SplineSet
1065 1164 m 1
 1065 666 l 1
 1498 666 l 1
 1498 824 l 1
 1565 824 l 1
 1565 424 l 1
 1498 424 l 1
 1498 596 l 1
 1065 596 l 1
 1065 70 l 1
 1726 70 l 1
 1726 376 l 1
 1803 376 l 1
 1803 0 l 1
 713 0 l 2
 511 0 353.833007812 60.6669921875 241.5 182 c 128
 129.166992188 303.333007812 73 447.5 73 614.5 c 128
 73 781.5 129.5 926.5 242.5 1049.5 c 128
 355.5 1172.5 512.333007812 1234 713 1234 c 2
 1781 1234 l 1
 1781 858 l 1
 1704 858 l 1
 1704 1164 l 1
 1065 1164 l 1
983 1158 m 1
 713 1158 l 2
 538.333007812 1158 402 1104 304 996 c 128
 206 888 157 760 157 612 c 128
 157 464 205.5 336.666992188 302.5 230 c 128
 399.5 123.333007812 536.333007812 70 713 70 c 2
 983 70 l 1
 983 1158 l 1
EndSplineSet
EndChar

StartChar: oe
Encoding: 483 339 227
Width: 1729
GlyphClass: 2
Flags: HW
LayerCount: 2
Fore
SplineSet
514 854 m 128
 684.669921875 854 840.3125 754.6640625 903 610 c 1
 971.666992188 772.666992188 1103 854 1297 854 c 0
 1415 854 1508.83300781 810.333007812 1578.5 723 c 128
 1648.16699219 635.666992188 1683 528 1683 400 c 1
 944 400 l 1
 955.333007812 232.666992188 1029.66699219 124 1167 74 c 0
 1207 59.3330078125 1249 52 1293 52 c 0
 1423.66699219 52 1535 102.666992188 1627 204 c 1
 1660 149 l 1
 1548.66699219 40.3330078125 1426.5 -14 1293.5 -14 c 128
 1116.04492188 -14 967.41015625 85.48046875 902 232 c 1
 841.34375 84.0986328125 702.881835938 -14 493 -14 c 0
 381 -14 281.5 24.8330078125 194.5 102.5 c 128
 107.5 180.166992188 64 286.833007812 64 422.5 c 128
 64 558.166992188 107.333007812 664 194 740 c 128
 280.666992188 816 387.333007812 854 514 854 c 128
754.5 690 m 128
 682.833007812 754.666992188 599 787 503 787 c 128
 407 787 323.5 755 252.5 691 c 128
 181.5 627 146 537.166992188 146 421.5 c 128
 146 305.833007812 181.333007812 215.5 252 150.5 c 128
 322.666992188 85.5 406.333007812 53 503 53 c 128
 599.666992188 53 683.666992188 85.8330078125 755 151.5 c 128
 826.333007812 217.166992188 862 307.166992188 862 421.5 c 128
 862 535.833007812 826.166992188 625.333007812 754.5 690 c 128
1605 466 m 1
 1593.66699219 608 1532.66699219 706 1422 760 c 0
 1385.33300781 778 1341.33300781 787 1290 787 c 0
 1188.66699219 787 1107 754.666992188 1045 690 c 128
 983 625.333007812 950 550.666992188 946 466 c 1
 1605 466 l 1
EndSplineSet
EndChar

StartChar: florin
Encoding: 494 402 238
Width: 691
GlyphClass: 2
Flags: HW
LayerCount: 2
Fore
SplineSet
675 1165 m 1
 640.333007812 1177 609.333007812 1183 582 1183 c 0
 520 1183 481.333007812 1148.66699219 466 1080 c 1
 399 836 l 1
 601 836 l 1
 586 779 l 1
 383 779 l 1
 185 60 l 2
 159.666992188 -29.3330078125 103.666992188 -77.3330078125 17 -84 c 0
 -7 -85.3330078125 -30.3330078125 -86 -53 -86 c 1
 -37 -24 l 1
 59.28125 -24 88.583984375 -1.9228515625 106 60 c 2
 304 779 l 1
 149 779 l 1
 165 836 l 1
 319 836 l 1
 387 1078 l 1
 415 1188.66699219 477.666992188 1244 575 1244 c 0
 613.666992188 1244 651.666992188 1235.66699219 689 1219 c 1
 675 1165 l 1
EndSplineSet
EndChar

StartChar: dotlessj
Encoding: 523 567 267
Width: 393
GlyphClass: 2
Flags: HW
LayerCount: 2
Fore
SplineSet
67 -199 m 2
 152.815429688 -199 165 -103.466796875 165 0 c 2
 165 779 l 1
 18 779 l 1
 18 860 l 1
 234 860 l 1
 234 -44 l 2
 234 -109.555664062 225.833007812 -155.944335938 209.5 -183.166992188 c 0
 174.366210938 -241.72265625 107.533203125 -271 9 -271 c 2
 -87 -271 l 1
 -87 -199 l 1
 67 -199 l 2
EndSplineSet
EndChar

StartChar: circumflex
Encoding: 524 710 268
Width: 588
GlyphClass: 2
Flags: HW
LayerCount: 2
Fore
SplineSet
101 922 m 1
 240 1195 l 1
 335 1195 l 1
 481 922 l 1
 392 922 l 1
 288 1146 l 1
 183 922 l 1
 101 922 l 1
EndSplineSet
EndChar

StartChar: caron
Encoding: 525 711 269
Width: 588
GlyphClass: 2
Flags: HW
LayerCount: 2
Fore
SplineSet
185 1195 m 1
 290 971 l 1
 394 1195 l 1
 483 1195 l 1
 337 922 l 1
 242 922 l 1
 103 1195 l 1
 185 1195 l 1
EndSplineSet
EndChar

StartChar: breve
Encoding: 526 728 270
Width: 582
GlyphClass: 2
Flags: HW
LayerCount: 2
Fore
SplineSet
179 1248 m 1
 184.219726562 1189.53808594 228.159179688 1136 283 1136 c 0
 358.333007812 1136 401 1173.33300781 411 1248 c 1
 454 1248 l 1
 445.375 1152.34570312 393.88671875 1080 293 1080 c 256
 204.819335938 1080 139.657226562 1150.07617188 128 1248 c 1
 179 1248 l 1
EndSplineSet
EndChar

StartChar: dotaccent
Encoding: 527 729 271
Width: 395
GlyphClass: 2
Flags: HW
LayerCount: 2
Fore
SplineSet
255 1184 m 1
 255 1064 l 1
 139 1064 l 1
 139 1184 l 1
 255 1184 l 1
EndSplineSet
EndChar

StartChar: ring
Encoding: 528 730 272
Width: 586
GlyphClass: 2
Flags: HW
LayerCount: 2
Fore
SplineSet
416 1165.5 m 128
 416 1227.64746094 368.875 1291 308 1291 c 0
 216.666992188 1291 171 1244.66699219 171 1152 c 0
 171 1092.40722656 229.0546875 1039 294.5 1039 c 128
 366.956054688 1039 416 1095.80371094 416 1165.5 c 128
294 1336 m 256
 390.330078125 1336 464 1273.71875 464 1165 c 256
 464 1068.34179688 401.764648438 997.565429688 294 995 c 257
 196.825195312 994.197265625 123 1055.95898438 123 1165 c 256
 123 1259.31835938 185.677734375 1336 294 1336 c 256
EndSplineSet
EndChar

StartChar: ogonek
Encoding: 529 731 273
Width: 506
GlyphClass: 2
Flags: HW
LayerCount: 2
Fore
SplineSet
294 -364 m 0
 171.333007812 -364 110 -318.5 110 -227.5 c 128
 110 -136.5 150.333007812 -60.6669921875 231 0 c 1
 284 0 l 1
 223.333007812 -58 193 -116 193 -174 c 0
 193 -243.333007812 232.333007812 -278 311 -278 c 0
 345.666992188 -278 380.666992188 -270.666992188 416 -256 c 1
 416 -319 l 1
 372.666992188 -349 332 -364 294 -364 c 0
EndSplineSet
EndChar

StartChar: tilde
Encoding: 530 732 274
Width: 711
GlyphClass: 2
Flags: HW
LayerCount: 2
Fore
SplineSet
245 1157 m 0
 293.568359375 1157 441.130859375 1110 490 1110 c 128
 518.666992188 1110 538 1124.33300781 548 1153 c 1
 585 1153 l 1
 575 1065.66699219 533.666992188 1022 461 1022 c 0
 431 1022 387.333007812 1029.83300781 330 1045.5 c 128
 272.666992188 1061.16699219 231.833007812 1069 207.5 1069 c 128
 183.166992188 1069 167 1055.33300781 159 1028 c 1
 121 1028 l 1
 131 1114 172.333007812 1157 245 1157 c 0
EndSplineSet
EndChar

StartChar: hungarumlaut
Encoding: 531 733 275
Width: 617
GlyphClass: 2
Flags: HW
LayerCount: 2
Fore
SplineSet
333 985 m 1
 392 1234 l 1
 518 1234 l 1
 364 985 l 1
 333 985 l 1
123 985 m 1
 182 1234 l 1
 308 1234 l 1
 154 985 l 1
 123 985 l 1
EndSplineSet
EndChar

StartChar: dotaccentcmb
Encoding: 532 775 276
Width: 395
GlyphClass: 2
Flags: HW
LayerCount: 2
Fore
SplineSet
255 1184 m 1
 255 1064 l 1
 139 1064 l 1
 139 1184 l 1
 255 1184 l 1
EndSplineSet
EndChar

StartChar: uni030F
Encoding: 533 783 277
Width: 620
GlyphClass: 2
Flags: HW
LayerCount: 2
Fore
SplineSet
255 985 m 1
 101 1234 l 1
 227 1234 l 1
 286 985 l 1
 255 985 l 1
465 985 m 1
 311 1234 l 1
 437 1234 l 1
 496 985 l 1
 465 985 l 1
EndSplineSet
EndChar

StartChar: uni0311
Encoding: 534 785 278
Width: 848
GlyphClass: 2
Flags: HW
LayerCount: 2
Fore
SplineSet
128 1080 m 1
 142.666992188 1208 252.666992188 1272 458 1272 c 0
 582.225585938 1272 704.91796875 1192.50390625 718 1080 c 1
 639 1080 l 1
 623 1172 552.333007812 1218 427 1218 c 128
 301.666992188 1218 231 1172 215 1080 c 1
 128 1080 l 1
EndSplineSet
EndChar

StartChar: uni0326
Encoding: 535 806 279
Width: 409
GlyphClass: 2
Flags: HW
LayerCount: 2
Fore
SplineSet
272 116 m 1
 272 -6 l 2
 272 -122 227 -180 137 -180 c 1
 137 -136 l 1
 201.625 -115.375 208 -90.0732421875 208 -4 c 1
 146 -4 l 1
 146 116 l 1
 272 116 l 1
EndSplineSet
EndChar

StartChar: pi
Encoding: 536 960 280
Width: 1135
GlyphClass: 2
Flags: HW
LayerCount: 2
Fore
SplineSet
167 709 m 1
 167 805.961914062 196.139648438 836 281 836 c 2
 962 836 l 1
 962 806 l 1
 854 806 l 1
 854 168 l 2
 854 88.6669921875 878 49 926 49 c 0
 941.333007812 49 960 52 982 58 c 1
 982 13 l 1
 946 -4.3330078125 914 -13 886 -13 c 0
 806.666992188 -13 767 51 767 179 c 2
 768 806 l 1
 406 806 l 1
 371 308 l 2
 363 193.333007812 343.5 112.666992188 312.5 66 c 128
 281.5 19.3330078125 231 -4 161 -4 c 1
 161 53 l 1
 252.94140625 54.12109375 270.373046875 116.96875 276.5 208 c 128
 278.833007812 242.666992188 282 283.333007812 286 330 c 2
 329 806 l 1
 280 806 l 2
 234 806 208.666992188 773.666992188 204 709 c 1
 167 709 l 1
EndSplineSet
EndChar

StartChar: endash
Encoding: 537 8211 281
Width: 993
GlyphClass: 2
Flags: HW
LayerCount: 2
Fore
SplineSet
858 60 m 1
 858 0 l 1
 142 0 l 1
 142 60 l 1
 858 60 l 1
EndSplineSet
EndChar

StartChar: emdash
Encoding: 538 8212 282
Width: 1354
GlyphClass: 2
Flags: HW
LayerCount: 2
Fore
SplineSet
1219 60 m 1
 1219 0 l 1
 142 0 l 1
 142 60 l 1
 1219 60 l 1
EndSplineSet
EndChar

StartChar: quoteleft
Encoding: 539 8216 283
Width: 394
GlyphClass: 2
Flags: HW
LayerCount: 2
Fore
SplineSet
131 959 m 1
 131 1081 l 2
 131 1197 176.333007812 1255 267 1255 c 1
 267 1211 l 1
 202.375 1190.375 196 1165.07324219 196 1079 c 1
 257 1079 l 1
 257 959 l 1
 131 959 l 1
EndSplineSet
EndChar

StartChar: quoteright
Encoding: 540 8217 284
Width: 394
GlyphClass: 2
Flags: HW
LayerCount: 2
Fore
SplineSet
265 1234 m 1
 265 1111 l 2
 265 995 219.666992188 937 129 937 c 1
 129 982 l 1
 193.984375 1002.73925781 200 1027.04296875 200 1114 c 1
 139 1114 l 1
 139 1234 l 1
 265 1234 l 1
EndSplineSet
EndChar

StartChar: quotesinglbase
Encoding: 541 8218 285
Width: 409
GlyphClass: 2
Flags: HW
LayerCount: 2
Fore
SplineSet
272 116 m 1
 272 -6 l 2
 272 -122 227 -180 137 -180 c 1
 137 -136 l 1
 201.625 -115.375 208 -90.0732421875 208 -4 c 1
 146 -4 l 1
 146 116 l 1
 272 116 l 1
EndSplineSet
EndChar

StartChar: quotedblleft
Encoding: 542 8220 286
Width: 620
GlyphClass: 2
Flags: HW
LayerCount: 2
Fore
SplineSet
357 959 m 1
 357 1081 l 2
 357 1197 402.333007812 1255 493 1255 c 1
 493 1211 l 1
 428.375 1190.375 422 1165.07324219 422 1079 c 1
 483 1079 l 1
 483 959 l 1
 357 959 l 1
131 959 m 1
 131 1081 l 2
 131 1197 176.333007812 1255 267 1255 c 1
 267 1211 l 1
 202.375 1190.375 196 1165.07324219 196 1079 c 1
 257 1079 l 1
 257 959 l 1
 131 959 l 1
EndSplineSet
EndChar

StartChar: quotedblright
Encoding: 543 8221 287
Width: 620
GlyphClass: 2
Flags: HW
LayerCount: 2
Fore
SplineSet
265 1234 m 1
 265 1111 l 2
 265 995 219.666992188 937 129 937 c 1
 129 982 l 1
 193.984375 1002.73925781 200 1027.04296875 200 1114 c 1
 139 1114 l 1
 139 1234 l 1
 265 1234 l 1
491 1234 m 1
 491 1111 l 2
 491 995 445.666992188 937 355 937 c 1
 355 982 l 1
 419.984375 1002.73925781 426 1027.04296875 426 1114 c 1
 365 1114 l 1
 365 1234 l 1
 491 1234 l 1
EndSplineSet
EndChar

StartChar: quotedblbase
Encoding: 544 8222 288
Width: 660
GlyphClass: 2
Flags: HW
LayerCount: 2
Fore
SplineSet
272 116 m 1
 272 -6 l 2
 272 -122 227 -180 137 -180 c 1
 137 -136 l 1
 201.625 -115.375 208 -90.0732421875 208 -4 c 1
 146 -4 l 1
 146 116 l 1
 272 116 l 1
523 116 m 1
 523 -6 l 2
 523 -122 478 -180 388 -180 c 1
 388 -136 l 1
 451.510742188 -115.16015625 458 -78.45703125 458 -4 c 1
 397 -4 l 1
 397 116 l 1
 523 116 l 1
EndSplineSet
EndChar

StartChar: dagger
Encoding: 545 8224 289
Width: 588
GlyphClass: 2
Flags: HW
LayerCount: 2
Fore
SplineSet
273 2 m 1
 247 590 l 1
 247 694.666992188 255.666992188 793.666992188 273 887 c 1
 43 862 l 1
 43 941 l 1
 273 923 l 1
 240 1210 l 1
 346 1210 l 1
 313 923 l 1
 540 941 l 1
 540 862 l 1
 313 887 l 1
 330.333007812 795.666992188 339 697.666992188 339 593 c 257
 313 2 l 1
 273 2 l 1
EndSplineSet
EndChar

StartChar: daggerdbl
Encoding: 546 8225 290
Width: 642
GlyphClass: 2
Flags: HW
LayerCount: 2
Fore
SplineSet
303 299 m 1
 293.666992188 343 289 441 289 593 c 256
 289 742.333007812 293.666992188 840.333007812 303 887 c 1
 73 862 l 1
 73 941 l 1
 303 923 l 1
 270 1210 l 1
 376 1210 l 1
 343 923 l 1
 570 941 l 1
 570 862 l 1
 343 887 l 1
 352.333007812 825 357 726.333007812 357 591 c 128
 357 455.666992188 352.333007812 358.333007812 343 299 c 1
 570 324 l 1
 570 245 l 1
 343 263 l 1
 376 -24 l 1
 270 -24 l 1
 303 263 l 1
 73 245 l 1
 73 324 l 1
 303 299 l 1
EndSplineSet
EndChar

StartChar: bullet
Encoding: 547 8226 291
Width: 738
GlyphClass: 2
Flags: HW
LayerCount: 2
Fore
SplineSet
129 674.5 m 128
 129 804.873046875 238.072265625 905 369 905 c 256
 499.366210938 905 610 804.010742188 610 674.5 c 128
 610 544.512695312 500.208984375 442 369 442 c 256
 237.206054688 442 129 543.64453125 129 674.5 c 128
EndSplineSet
EndChar

StartChar: ellipsis
Encoding: 548 8230 292
Width: 921
GlyphClass: 2
Flags: HW
LayerCount: 2
Fore
SplineSet
262 120 m 1
 262 0 l 1
 146 0 l 1
 146 120 l 1
 262 120 l 1
523 120 m 1
 523 0 l 1
 406 0 l 1
 406 120 l 1
 523 120 l 1
783 120 m 1
 783 0 l 1
 667 0 l 1
 667 120 l 1
 783 120 l 1
EndSplineSet
EndChar

StartChar: guilsinglleft
Encoding: 549 8249 293
Width: 512
GlyphClass: 2
Flags: HW
LayerCount: 2
Fore
SplineSet
346 1043 m 1
 394 1043 l 1
 182 664 l 1
 394 281 l 1
 346 281 l 1
 74 664 l 1
 346 1043 l 1
EndSplineSet
EndChar

StartChar: guilsinglright
Encoding: 550 8250 294
Width: 510
GlyphClass: 2
Flags: HW
LayerCount: 2
Fore
SplineSet
437 664 m 1
 165 281 l 1
 117 281 l 1
 329 664 l 1
 117 1043 l 1
 165 1043 l 1
 437 664 l 1
EndSplineSet
EndChar

StartChar: fraction
Encoding: 551 8260 295
Width: 540
GlyphClass: 2
Flags: HW
LayerCount: 2
Fore
SplineSet
414 1255 m 1
 485 1255 l 1
 117 -23 l 1
 42 -23 l 1
 414 1255 l 1
EndSplineSet
EndChar

StartChar: foursuperior
Encoding: 552 8308 296
Width: 772
GlyphClass: 2
Flags: HW
LayerCount: 2
Fore
SplineSet
74 316 m 1
 412 866 l 1
 504 866 l 1
 504 323 l 1
 682 323 l 1
 682 260 l 1
 504 260 l 1
 504 61 l 1
 616 61 l 1
 616 0 l 1
 319 0 l 1
 319 61 l 1
 431 61 l 1
 431 260 l 1
 83 260 l 1
 74 316 l 1
431 323 m 1
 431 768 l 1
 339.645507812 614.846679688 254.013671875 477.5 164 323 c 1
 431 323 l 1
EndSplineSet
EndChar

StartChar: Euro
Encoding: 553 8364 297
Width: 1287
GlyphClass: 2
Flags: HW
LayerCount: 2
Fore
SplineSet
275 455 m 1
 327.44921875 218.369140625 512.08984375 47 788 47 c 128
 915.333007812 47 1042.66699219 89.3330078125 1170 174 c 1
 1204 110 l 1
 1070.66699219 22 927.333007812 -22 774 -22 c 0
 548 -22 379.666992188 67 269 245 c 0
 231.666992188 305 205 375 189 455 c 1
 5 455 l 1
 5 517 l 1
 179 517 l 1
 175 569 173 608.833007812 173 636.5 c 128
 173 664.166992188 176 696 182 732 c 1
 5 732 l 1
 5 794 l 1
 195 794 l 1
 230.333007812 929.333007812 302 1040 410 1126 c 128
 518 1212 639.333007812 1255 774 1255 c 128
 908.666992188 1255 1031.33300781 1203 1142 1099 c 1
 1142 1237 l 1
 1217 1237 l 1
 1217 1007 l 1
 1155 994 l 1
 1042.33300781 1116.66699219 906.833007812 1178 748.5 1178 c 128
 590.166992188 1178 459 1102.66699219 355 952 c 0
 323 905.333007812 298.333007812 852.666992188 281 794 c 1
 896 794 l 1
 896 732 l 1
 267 732 l 1
 260.333007812 696 257 659.333007812 257 622 c 256
 257 590.666992188 259.333007812 555.666992188 264 517 c 1
 896 517 l 1
 896 455 l 1
 275 455 l 1
EndSplineSet
EndChar

StartChar: trademark
Encoding: 554 8482 298
Width: 1635
GlyphClass: 2
Flags: HW
LayerCount: 2
Fore
SplineSet
643 1236 m 1
 643 1026 l 1
 586 1026 l 1
 586 1183 l 1
 394 1183 l 1
 394 660 l 1
 481 660 l 1
 481 612 l 1
 249 612 l 1
 249 660 l 1
 335 660 l 1
 335 1183 l 1
 147 1183 l 1
 147 1026 l 1
 91 1026 l 1
 91 1236 l 1
 643 1236 l 1
1145 760 m 1
 1366 1236 l 1
 1507 1236 l 1
 1507 1187 l 1
 1429 1187 l 1
 1429 661 l 1
 1507 661 l 1
 1507 612 l 1
 1292 612 l 1
 1292 661 l 1
 1371 661 l 1
 1371 1114 l 1
 1145 638 l 1
 911 1115 l 1
 911 661 l 1
 991 661 l 1
 991 612 l 1
 775 612 l 1
 775 661 l 1
 854 661 l 1
 854 1187 l 1
 775 1187 l 1
 775 1236 l 1
 916 1236 l 1
 1145 760 l 1
EndSplineSet
EndChar

StartChar: partialdiff
Encoding: 555 8706 299
Width: 888
GlyphClass: 2
Flags: HW
LayerCount: 2
Fore
SplineSet
131 363 m 128
 131 177.608398438 256.608398438 49 447 49 c 128
 638.338867188 49 758 169.690429688 758 356.5 c 128
 758 446.833007812 726.833007812 519.666992188 664.5 575 c 128
 602.166992188 630.333007812 528.333007812 658 443 658 c 256
 357.666992188 658 293.333007812 639 250 601 c 0
 170.666992188 531.666992188 131 452.333007812 131 363 c 128
343 1361 m 1
 701 697 l 1
 790.333007812 547 835 437 835 367 c 0
 835 245.666992188 795.666992188 150.333007812 717 81 c 128
 638.333007812 11.6669921875 557.333007812 -23 474 -23 c 0
 332 -23 225.666992188 15.6669921875 155 93 c 128
 84.3330078125 170.333007812 49 260.5 49 363.5 c 128
 49 466.5 86.8330078125 552.666992188 162.5 622 c 128
 238.166992188 691.333007812 318.333007812 726 403 726 c 128
 487.666992188 726 562.666992188 710 628 678 c 1
 276 1314 l 1
 343 1361 l 1
EndSplineSet
EndChar

StartChar: Delta
Encoding: 556 8710 300
Width: 759
GlyphClass: 2
Flags: HW
LayerCount: 2
Fore
SplineSet
699 0 m 1
 63 0 l 1
 63 67 l 1
 380 1062 l 1
 699 66 l 1
 699 0 l 1
649 61 m 1
 380 935 l 1
 110 61 l 1
 649 61 l 1
EndSplineSet
EndChar

StartChar: minus
Encoding: 559 8722 303
Width: 1222
GlyphClass: 2
Flags: HW
LayerCount: 2
Fore
SplineSet
1102 959 m 1
 1102 872 l 1
 118 872 l 1
 118 959 l 1
 1102 959 l 1
EndSplineSet
EndChar

StartChar: infinity
Encoding: 561 8734 305
Width: 1293
GlyphClass: 2
Flags: HW
LayerCount: 2
Fore
SplineSet
647 644 m 1
 713.666992188 769.333007812 802.333007812 832 913 832 c 0
 979.666992188 832 1030.66699219 814.333007812 1066 779 c 0
 1128.66699219 715 1160 638.833007812 1160 550.5 c 128
 1160 462.166992188 1135 392.5 1085 341.5 c 128
 1035 290.5 977.333007812 265 912 265 c 0
 800.666992188 265 713.333007812 330.666992188 650 462 c 1
 580.666992188 334 488.666992188 270 374 270 c 0
 214.666992188 270 135 374 135 582 c 0
 135 640.666992188 158 697.666992188 204 753 c 128
 250 808.333007812 310.166992188 836 384.5 836 c 128
 458.833007812 836 526.666992188 801.333007812 588 732 c 0
 609.333007812 708 629 678.666992188 647 644 c 1
915 316 m 256
 1033 316 1092 401.333007812 1092 572 c 0
 1092 622 1075.66699219 669.166992188 1043 713.5 c 0
 1010.33300781 757.833007812 962 780 898 780 c 0
 820.666992188 780 745.666992188 702.666992188 673 548 c 1
 728.333007812 426 785.333007812 353 844 329 c 0
 865.333007812 320.333007812 889 316 915 316 c 256
387 785 m 0
 264.333007812 785 203 697 203 521 c 0
 203 473 218.5 427.5 249.5 384.5 c 128
 280.5 341.5 321.333007812 320 372 320 c 0
 466.666992188 320 549.666992188 397.666992188 621 553 c 1
 555 707.666992188 477 785 387 785 c 0
EndSplineSet
EndChar

StartChar: integral
Encoding: 562 8747 306
Width: 670
GlyphClass: 2
Flags: HW
LayerCount: 2
Fore
SplineSet
687 1165 m 1
 652.333007812 1177 621.333007812 1183 594 1183 c 0
 534.666992188 1183 496 1148.66699219 478 1080 c 2
 197 60 l 2
 172.333007812 -29.3330078125 116.666992188 -77.3330078125 30 -84 c 0
 6 -85.3330078125 -17.6669921875 -86 -41 -86 c 1
 -25 -24 l 1
 71.28125 -24 100.583984375 -1.9228515625 118 60 c 2
 399 1078 l 2
 429 1188.66699219 491.666992188 1244 587 1244 c 0
 625.666992188 1244 663.666992188 1235.66699219 701 1219 c 1
 687 1165 l 1
EndSplineSet
EndChar

StartChar: approxequal
Encoding: 563 8776 307
Width: 809
GlyphClass: 2
Flags: HW
LayerCount: 2
Fore
SplineSet
255 574 m 0
 315.951171875 574 509.146484375 527 567.5 527 c 128
 599.833007812 527 620.666992188 541.333007812 630 570 c 1
 667 570 l 1
 657 482.666992188 615.666992188 439 543 439 c 0
 503.666992188 439 447 446.833007812 373 462.5 c 128
 299 478.166992188 248.5 486 221.5 486 c 128
 194.5 486 177 472.333007812 169 445 c 1
 131 445 l 1
 141 531 182.333007812 574 255 574 c 0
553 638 m 0
 514.333007812 638 458 645.833007812 384 661.5 c 128
 310 677.166992188 259.166992188 685 231.5 685 c 128
 203.833007812 685 186.666992188 671.333007812 180 644 c 1
 142 644 l 1
 150.666992188 730 191.666992188 773 265 773 c 0
 303.666992188 773 357.5 765.166992188 426.5 749.5 c 128
 495.5 733.833007812 545.833007812 726 577.5 726 c 128
 609.166992188 726 630.333007812 740.333007812 641 769 c 1
 678 769 l 1
 668 681.666992188 626.333007812 638 553 638 c 0
EndSplineSet
EndChar

StartChar: notequal
Encoding: 564 8800 308
Width: 876
GlyphClass: 2
Flags: HW
LayerCount: 2
Fore
SplineSet
467 677 m 1
 516 868 l 1
 574 868 l 1
 521 677 l 1
 796 677 l 1
 796 613 l 1
 509 613 l 1
 436 337 l 1
 796 337 l 1
 796 276 l 1
 419 276 l 1
 372 84 l 1
 312 84 l 1
 362 276 l 1
 93 276 l 1
 93 337 l 1
 380 337 l 1
 452 613 l 1
 93 613 l 1
 93 677 l 1
 467 677 l 1
EndSplineSet
EndChar

StartChar: lessequal
Encoding: 565 8804 309
Width: 889
GlyphClass: 2
Flags: HW
LayerCount: 2
Fore
SplineSet
73 553 m 1
 73 590 l 1
 761 952 l 1
 761 882 l 1
 179 571 l 1
 761 262 l 1
 761 194 l 1
 73 553 l 1
73 58 m 1
 761 58 l 1
 761 0 l 1
 73 0 l 1
 73 58 l 1
EndSplineSet
EndChar

StartChar: greaterequal
Encoding: 566 8805 310
Width: 889
GlyphClass: 2
Flags: HW
LayerCount: 2
Fore
SplineSet
134 194 m 1
 134 262 l 1
 716 571 l 1
 134 882 l 1
 134 952 l 1
 822 590 l 1
 822 553 l 1
 134 194 l 1
822 0 m 1
 134 0 l 1
 134 58 l 1
 822 58 l 1
 822 0 l 1
EndSplineSet
EndChar

StartChar: lozenge
Encoding: 567 9674 311
Width: 911
GlyphClass: 2
Flags: HW
LayerCount: 2
Fore
SplineSet
483 -23 m 1
 432 -23 l 1
 31 614 l 1
 432 1254 l 1
 483 1254 l 1
 883 616 l 1
 483 -23 l 1
460 1181 m 1
 117 616 l 1
 460 47 l 1
 801 616 l 1
 460 1181 l 1
EndSplineSet
EndChar

StartChar: fi
Encoding: 568 64257 312
Width: 1133
GlyphClass: 2
Flags: HW
LayerCount: 2
Fore
SplineSet
258 970 m 2
 258 1152.3125 462.083984375 1248 653 1248 c 128
 761 1248 841 1218.66699219 893 1160 c 0
 910.333007812 1141.33300781 919.333007812 1120.66699219 920 1098 c 0
 920 1050 898.5 1025.83300781 855.5 1025.5 c 0
 812.5 1025.83300781 791 1046.66699219 791 1088 c 0
 791 1105.33300781 800.333007812 1119.33300781 819 1130 c 1
 775 1167.33300781 714 1186 636 1186 c 128
 494.78125 1186 337 1108.67382812 337 972 c 2
 337 836 l 1
 900 836 l 1
 900 60 l 1
 1053 60 l 1
 1053 0 l 1
 671 0 l 1
 671 60 l 1
 821 60 l 1
 821 776 l 1
 337 776 l 1
 337 60 l 1
 528 60 l 1
 528 0 l 1
 103 0 l 1
 103 60 l 1
 258 60 l 1
 258 776 l 1
 103 776 l 1
 103 836 l 1
 258 836 l 1
 258 970 l 2
EndSplineSet
LCarets2: 1 0 
Ligature2: "'liga' Standard Ligatures lookup 0 subtable" f i
EndChar

StartChar: fl
Encoding: 569 64258 313
Width: 1194
GlyphClass: 2
Flags: HW
LayerCount: 2
Fore
SplineSet
259 962 m 2
 259 1163.44628906 459.931640625 1253 670 1253 c 128
 786.666992188 1253 869.333007812 1228.66699219 918 1180 c 0
 934 1164 942 1145 942 1123 c 2
 942 60 l 1
 1125 60 l 1
 1125 0 l 1
 676 0 l 1
 676 60 l 1
 862 60 l 1
 862 1123 l 2
 862 1167.66699219 778 1190 610 1190 c 0
 554.666992188 1190 495.5 1170.66699219 432.5 1132 c 128
 369.5 1093.33300781 338 1037.66699219 338 965 c 2
 338 836 l 1
 541 836 l 1
 541 779 l 1
 338 779 l 1
 338 60 l 1
 529 60 l 1
 529 0 l 1
 104 0 l 1
 104 60 l 1
 259 60 l 1
 259 779 l 1
 104 779 l 1
 104 836 l 1
 259 836 l 1
 259 962 l 2
EndSplineSet
LCarets2: 1 0 
Ligature2: "'liga' Standard Ligatures lookup 0 subtable" f l
EndChar

StartChar: commaaccent
Encoding: 570 -1 314
Width: 393
GlyphClass: 2
Flags: HW
LayerCount: 2
Fore
SplineSet
263 1237 m 1
 263 1115 l 2
 263 999 218 941 128 941 c 1
 128 985 l 1
 192.625 1005.625 199 1030.92675781 199 1117 c 1
 137 1117 l 1
 137 1237 l 1
 263 1237 l 1
EndSplineSet
EndChar

StartChar: dotaccentcmb.cap
Encoding: 574 -1 318
Width: 385
GlyphClass: 2
Flags: HW
LayerCount: 2
Fore
SplineSet
247 1121 m 1
 247 1001 l 1
 130 1001 l 1
 130 1121 l 1
 247 1121 l 1
EndSplineSet
EndChar

